<?xml version="1.0" standalone="no"?>
<!DOCTYPE svg PUBLIC "-//W3C//DTD SVG 20010904//EN"
 "http://www.w3.org/TR/2001/REC-SVG-20010904/DTD/svg10.dtd">
<svg version="1.0" xmlns="http://www.w3.org/2000/svg"
 width="1587.000000pt" height="2245.000000pt" viewBox="0 0 1587.000000 2245.000000"
 preserveAspectRatio="xMidYMid meet">

<g transform="translate(0.000000,2245.000000) scale(0.100000,-0.100000)"
fill="#000000" stroke="none">
<path d="M11093 20903 c-70 -29 -109 -51 -105 -57 4 -6 41 -63 83 -126 42 -63
98 -154 124 -202 l47 -88 -326 0 -326 0 0 -120 0 -120 504 0 504 0 -9 -42 c-6
-24 -24 -96 -41 -160 l-30 -118 -327 -2 -326 -3 -3 -902 -2 -903 920 0 920 0
0 905 0 905 -455 0 c-250 0 -455 2 -455 5 0 3 25 62 54 133 30 70 60 140 65
155 l11 27 555 0 555 0 0 120 0 120 -360 0 c-198 0 -360 2 -360 4 0 3 42 67
94 143 84 124 176 268 176 276 0 10 -274 80 -277 72 -11 -34 -156 -288 -219
-382 l-74 -113 -352 1 c-394 1 -371 -6 -220 62 l62 28 -31 62 c-59 117 -232
367 -254 367 -5 -1 -60 -22 -122 -47z m1327 -1418 l0 -155 -640 0 -640 0 0
155 0 155 640 0 640 0 0 -155z m-2 -522 l2 -163 -640 0 -640 0 0 165 0 165
638 -2 637 -3 3 -162z m2 -523 l0 -160 -640 0 -640 0 0 160 0 160 640 0 640 0
0 -160z"/>
<path d="M9760 20729 c-52 -32 -99 -64 -104 -69 -7 -7 14 -35 65 -88 151 -154
346 -387 427 -510 21 -31 41 -51 48 -48 21 8 224 146 224 152 0 36 -488 580
-550 614 -11 6 -44 -10 -110 -51z"/>
<path d="M9587 19563 c-4 -3 -7 -64 -7 -135 l0 -128 268 -2 267 -3 3 -592 2
-592 -74 -35 c-41 -20 -121 -71 -178 -113 -107 -79 -308 -258 -308 -274 0 -5
37 -59 83 -120 l82 -110 49 53 c280 301 379 380 479 380 54 0 114 -29 252
-122 144 -96 198 -124 311 -163 265 -92 471 -111 1114 -104 445 6 999 23 1046
32 17 4 24 17 33 66 7 34 25 97 40 141 19 53 24 78 16 78 -7 0 -79 -7 -161
-15 -342 -33 -736 -47 -1209 -42 -481 4 -550 10 -741 56 -151 37 -252 85 -444
209 -52 34 -98 62 -102 62 -4 0 -9 332 -10 738 l-3 737 -401 3 c-220 1 -403
-1 -407 -5z"/>
<path d="M10350 16155 l0 -495 -180 0 -180 0 0 365 0 365 -50 0 -50 0 0 -415
0 -415 459 0 460 0 3 -47 3 -48 48 -3 47 -3 0 465 0 466 -50 0 -50 0 0 -365 0
-365 -180 0 -180 0 0 495 0 495 -50 0 -50 0 0 -495z"/>
<path d="M11950 16020 l0 -550 45 0 45 0 0 45 0 45 330 0 330 0 0 -40 0 -40
50 0 50 0 0 545 0 545 -425 0 -425 0 0 -550z m750 280 l0 -180 -330 0 -330 0
0 173 c0 96 3 177 7 180 3 4 152 7 330 7 l323 0 0 -180z m0 -460 l0 -180 -330
0 -330 0 0 180 0 180 330 0 330 0 0 -180z"/>
<path d="M3089 15351 c-65 -25 -81 -38 -140 -112 -90 -113 -179 -317 -245
-567 -26 -97 -30 -117 -58 -287 -48 -294 -48 -573 0 -810 8 -38 20 -97 25
-130 l11 -61 -51 -102 c-104 -208 -183 -445 -221 -667 -7 -38 -16 -92 -21
-118 -5 -26 -9 -68 -9 -92 0 -71 -4 -75 -74 -75 -33 0 -128 7 -211 15 -152 15
-420 20 -449 9 -25 -10 -21 -63 7 -73 12 -5 118 -14 235 -20 117 -6 271 -17
342 -23 150 -13 135 2 150 -162 5 -55 16 -134 24 -174 10 -54 11 -74 2 -77
-49 -16 -99 -25 -142 -25 -28 0 -76 -5 -105 -10 -30 -6 -85 -15 -124 -21 -167
-25 -179 -27 -355 -69 -208 -50 -251 -76 -213 -130 17 -25 9 -26 173 18 139
37 273 65 400 86 313 50 380 56 397 34 13 -18 103 -254 103 -271 0 -9 -24 -24
-58 -37 -308 -118 -468 -192 -597 -275 -27 -17 -67 -42 -88 -54 -39 -24 -57
-63 -40 -90 19 -30 44 -23 151 42 234 142 639 322 685 304 9 -3 50 -57 91
-119 42 -62 90 -131 106 -154 30 -39 30 -42 15 -70 -22 -41 -137 -324 -197
-482 -82 -220 -155 -484 -202 -732 -31 -162 -66 -458 -66 -555 0 -100 -11
-175 -25 -175 -6 0 -42 19 -80 42 -294 177 -558 450 -662 686 -14 31 -31 71
-39 89 -21 47 -52 177 -65 273 -18 132 -6 368 27 525 20 97 27 161 27 251 1
117 0 123 -31 187 -40 80 -108 144 -183 172 -86 32 -223 28 -317 -9 -165 -64
-271 -171 -373 -376 -88 -178 -139 -417 -139 -654 0 -441 143 -826 444 -1202
151 -188 486 -476 706 -606 254 -151 501 -263 725 -327 l129 -37 24 -60 c42
-107 180 -378 228 -449 92 -137 160 -221 258 -319 314 -312 679 -472 1141
-501 55 -4 138 -13 184 -21 46 -8 131 -14 188 -14 86 0 118 5 178 25 l74 26
438 4 c241 2 448 4 461 5 13 1 31 -5 40 -13 30 -26 93 -37 247 -43 149 -6 151
-6 243 25 84 28 104 31 220 31 308 0 573 65 685 167 114 104 267 292 384 473
289 447 479 976 554 1550 17 128 17 590 1 755 -35 343 -114 694 -229 1020 -78
223 -184 470 -225 526 -9 14 -1 33 46 107 l57 91 40 -14 c43 -16 56 -21 211
-93 117 -55 290 -152 442 -249 55 -35 105 -63 111 -63 22 0 47 38 40 59 -19
61 -415 294 -680 401 -45 18 -89 38 -99 45 -20 15 -25 -2 62 210 34 83 35 83
167 61 215 -37 419 -88 617 -155 105 -35 118 -38 137 -24 28 19 27 59 -3 78
-34 23 -235 89 -361 119 -60 15 -136 33 -167 41 -32 8 -70 15 -84 15 -15 0
-43 4 -63 9 -20 5 -69 15 -108 21 -42 7 -73 17 -73 23 0 7 7 46 16 87 8 41 22
115 29 164 7 49 19 92 26 96 26 17 454 50 635 50 88 0 113 15 99 57 l-10 28
-156 3 c-86 1 -214 -3 -285 -9 -71 -6 -166 -13 -211 -16 l-83 -4 0 83 c0 105
-24 354 -45 478 -9 52 -33 151 -52 220 -40 141 -41 118 13 370 25 117 27 141
27 390 1 281 -7 360 -58 600 -55 257 -100 391 -192 575 -47 93 -82 136 -145
176 -51 33 -56 34 -148 32 -90 -1 -102 -4 -230 -56 -297 -121 -544 -257 -910
-500 l-134 -89 -51 6 c-27 4 -63 11 -80 16 -36 11 -174 38 -230 45 -394 51
-869 28 -1198 -60 -105 -28 -99 -30 -258 100 -203 167 -545 384 -774 495 -94
44 -279 110 -310 109 -11 0 -41 -8 -66 -18z m306 -220 c289 -140 466 -253 750
-476 99 -78 190 -147 203 -154 19 -10 40 -7 130 18 257 71 451 95 772 95 285
0 434 -17 658 -73 168 -43 178 -42 265 22 84 62 83 62 247 171 297 199 764
422 907 434 l63 5 38 -40 c98 -103 223 -472 279 -823 14 -92 18 -173 18 -400
0 -300 -4 -336 -56 -527 l-20 -71 41 -162 c64 -253 81 -371 87 -587 l6 -192
-25 -10 c-13 -5 -51 -12 -84 -16 -265 -31 -860 -160 -951 -206 -39 -21 -34
-79 8 -79 11 0 97 20 192 45 173 45 428 94 696 135 149 23 163 21 155 -19 -1
-9 -10 -68 -19 -132 -9 -63 -20 -122 -25 -129 -5 -7 -23 -13 -42 -13 -18 1
-223 5 -454 9 l-422 7 -12 -23 c-10 -18 -9 -25 4 -38 19 -19 18 -19 505 -32
201 -5 369 -14 374 -19 12 -12 -15 -94 -60 -183 -24 -50 -39 -68 -53 -68 -11
0 -101 20 -199 45 -217 55 -525 102 -547 84 -18 -15 -18 -43 0 -58 8 -7 72
-23 143 -36 226 -41 515 -112 552 -134 18 -11 9 -36 -40 -113 -77 -118 -233
-300 -343 -400 -184 -165 -475 -349 -718 -452 -256 -109 -592 -195 -918 -237
-143 -19 -698 -19 -840 0 -518 67 -958 219 -1307 451 -156 103 -290 216 -387
324 -107 122 -211 284 -193 302 17 17 601 144 664 144 22 0 53 29 53 50 0 43
-21 44 -212 11 -227 -39 -371 -68 -467 -92 -111 -28 -107 -30 -152 65 -21 46
-42 98 -45 114 l-6 29 84 7 c45 3 236 11 423 17 207 6 345 14 352 21 15 12 17
54 4 62 -5 4 -184 1 -398 -6 -213 -6 -410 -12 -438 -12 -56 -1 -47 -15 -79
134 -26 122 -36 190 -36 248 l0 55 83 -6 c122 -9 478 -62 678 -102 196 -39
231 -42 248 -21 15 18 0 52 -26 60 -137 41 -543 116 -836 155 -76 10 -141 21
-144 24 -9 9 26 253 53 376 43 189 122 400 227 600 47 88 49 97 38 125 -56
139 -81 306 -81 549 0 188 16 346 55 543 63 312 211 657 299 695 40 17 102 -3
281 -90z m-2115 -3948 c64 -23 94 -48 127 -107 27 -49 28 -56 27 -181 0 -92
-7 -161 -22 -235 -99 -476 -12 -869 269 -1215 68 -84 231 -243 314 -306 75
-57 229 -150 290 -175 52 -22 48 -9 65 -213 14 -170 43 -345 81 -490 16 -62
28 -115 25 -118 -2 -2 -42 9 -87 25 -368 131 -648 273 -876 443 -371 279 -631
580 -769 889 -89 202 -123 323 -149 540 -19 158 -19 255 0 389 41 280 126 480
265 622 137 140 289 186 440 132z m6317 -175 c196 -469 292 -815 349 -1263 25
-191 25 -643 0 -830 -27 -213 -88 -474 -159 -680 -47 -138 -174 -443 -212
-510 -12 -22 -37 -67 -55 -100 -152 -276 -389 -574 -537 -677 -90 -61 -227
-95 -442 -108 -90 -6 -166 -9 -168 -6 -3 2 14 28 38 58 23 29 67 105 96 168
30 63 66 138 79 166 83 175 300 551 486 842 54 85 98 156 98 159 0 3 10 19 22
35 33 47 148 258 140 258 -11 0 -216 -261 -308 -391 -165 -235 -405 -642 -546
-927 -99 -201 -116 -229 -169 -282 -59 -57 -162 -121 -174 -108 -4 4 -12 30
-19 60 -7 35 -17 53 -26 53 -12 0 -16 -17 -18 -73 l-3 -73 -107 3 c-121 3
-109 -7 -111 96 -1 29 -6 45 -17 49 -21 8 -30 -9 -38 -68 -4 -27 -11 -49 -17
-49 -21 0 -116 54 -147 84 -56 52 -79 110 -107 270 -20 116 -20 407 0 602 16
155 52 362 86 499 28 109 123 398 170 517 44 109 49 132 19 103 -42 -43 -122
-195 -179 -339 -67 -171 -107 -322 -144 -541 -84 -497 -60 -1000 55 -1131 17
-19 28 -37 25 -40 -9 -9 -517 -10 -591 -1 l-69 9 28 26 c138 128 144 614 14
1172 -71 307 -109 428 -188 595 -53 112 -157 285 -172 285 -15 0 -11 -15 27
-113 168 -426 267 -782 320 -1147 25 -169 25 -503 1 -589 -34 -120 -80 -181
-167 -220 l-45 -20 -17 37 c-10 20 -18 43 -18 50 0 6 -9 12 -20 12 -22 0 -28
-19 -32 -95 l-3 -50 -102 -3 -103 -3 0 59 c0 105 -44 125 -58 26 -9 -63 -28
-67 -97 -19 -99 68 -135 117 -237 325 -143 290 -350 629 -536 875 -89 118
-293 358 -298 352 -3 -2 49 -85 114 -183 65 -99 144 -222 176 -274 32 -52 73
-117 91 -145 106 -162 261 -437 355 -626 121 -245 170 -329 192 -329 4 0 8 -4
8 -10 0 -6 -31 -10 -72 -10 -263 0 -631 149 -878 355 -287 240 -478 531 -620
941 -140 405 -178 979 -99 1473 68 428 165 764 335 1161 31 74 63 150 69 169
l13 35 63 -60 c286 -270 611 -457 1021 -589 286 -92 507 -137 823 -166 142
-13 526 -7 670 11 135 16 403 59 440 70 17 5 77 21 135 36 421 106 825 307
1135 564 86 72 235 225 300 308 22 28 45 51 50 52 6 0 43 -78 82 -172z"/>
<path d="M7194 14838 c-69 -54 -422 -370 -571 -512 -62 -59 -73 -74 -73 -102
0 -40 36 -70 70 -59 36 12 625 548 662 603 17 26 15 46 -10 75 -20 23 -43 22
-78 -5z"/>
<path d="M3070 14739 c-22 -40 -3 -66 103 -146 189 -143 276 -214 454 -370 98
-86 120 -96 161 -67 36 25 29 67 -20 120 -87 95 -456 388 -570 453 -63 37
-112 40 -128 10z"/>
<path d="M3570 12715 c-153 -33 -270 -100 -270 -155 0 -61 35 -63 171 -6 294
123 606 29 855 -257 45 -52 79 -61 107 -29 39 43 7 102 -119 222 -126 120
-258 189 -427 224 -92 19 -229 19 -317 1z"/>
<path d="M6360 12674 c-194 -36 -360 -125 -497 -266 -79 -83 -96 -118 -68
-148 32 -35 60 -25 144 53 195 183 380 258 601 244 108 -7 171 -23 283 -74 74
-33 79 -34 103 -19 31 21 32 65 1 94 -34 32 -162 88 -243 106 -109 24 -226 28
-324 10z"/>
<path d="M4940 12239 c-63 -12 -145 -47 -166 -70 -23 -25 -23 -79 -1 -113 25
-37 144 -134 197 -160 l45 -21 0 -110 c-1 -92 -4 -116 -22 -150 -37 -71 -100
-132 -169 -166 -57 -28 -76 -33 -144 -33 -68 0 -87 5 -143 32 -65 32 -117 81
-149 140 -29 54 -95 65 -119 20 -25 -47 40 -167 128 -234 68 -52 144 -76 259
-82 112 -5 181 9 268 56 47 26 166 144 166 165 0 6 32 -24 71 -66 112 -122
192 -158 354 -158 190 0 360 84 424 210 35 67 29 136 -13 147 -39 9 -75 -13
-95 -58 -47 -108 -203 -187 -344 -176 -190 16 -335 194 -325 400 l3 62 85 52
c189 114 238 219 128 275 -84 43 -313 63 -438 38z m303 -110 c22 -6 37 -15 35
-22 -6 -19 -170 -127 -192 -127 -31 0 -186 107 -186 128 0 6 12 15 28 20 36
14 267 15 315 1z"/>
<path d="M12705 14809 c-98 -30 -405 -70 -679 -89 -82 -6 -151 -12 -153 -14
-3 -2 1 -21 7 -43 l12 -38 127 7 c70 4 167 11 214 16 l87 8 0 -103 0 -103
-225 0 -225 0 0 -45 0 -45 225 0 225 0 0 -110 0 -110 -270 0 -270 0 0 -45 0
-45 270 0 270 0 0 -153 c0 -106 -4 -157 -12 -165 -8 -8 -54 -12 -140 -12 -70
0 -128 -2 -128 -4 0 -2 9 -25 21 -51 l21 -48 122 7 c133 7 182 23 203 66 9 17
13 79 13 193 l0 167 270 0 270 0 0 45 0 45 -270 0 -270 0 0 110 0 110 235 0
235 0 0 45 0 45 -235 0 -235 0 0 108 0 108 118 18 c64 9 157 26 205 38 l89 20
-38 39 c-41 42 -43 42 -89 28z"/>
<path d="M9830 14675 l0 -45 185 0 c157 0 185 -2 185 -15 0 -21 -70 -179 -114
-258 -55 -100 -146 -216 -230 -294 l-73 -69 32 -38 32 -38 59 53 c32 29 79 77
104 105 l45 52 3 -254 2 -254 50 0 50 0 0 45 0 45 315 0 315 0 0 -45 0 -45 50
0 50 0 0 330 0 330 -365 0 -365 0 46 93 c26 50 62 128 80 172 l32 80 326 3
326 2 0 45 0 45 -570 0 -570 0 0 -45z m960 -675 l0 -190 -315 0 -315 0 0 190
0 190 315 0 315 0 0 -190z"/>
<path d="M10346 12793 c-16 -419 -67 -586 -230 -749 -69 -68 -99 -89 -188
-134 l-107 -53 27 -38 c15 -21 30 -39 34 -39 4 0 32 11 62 24 86 38 195 113
258 177 63 64 138 185 164 261 8 26 19 48 24 48 4 0 18 -24 30 -54 65 -161
202 -307 364 -387 56 -27 115 -51 131 -54 27 -5 33 -1 57 37 l27 43 -67 22
c-111 37 -191 84 -268 156 -90 84 -154 184 -201 314 l-35 98 11 130 c6 72 11
185 11 253 l0 122 -49 0 -48 0 -7 -177z"/>
<path d="M11920 12345 l0 -555 50 0 50 0 0 45 0 45 343 -2 342 -3 3 -42 3 -43
50 0 49 0 0 555 0 555 -445 0 -445 0 0 -555z m785 355 l0 -105 -342 -3 -343
-2 0 110 0 110 343 -2 342 -3 0 -105z m5 -310 l0 -110 -345 0 -345 0 0 110 0
110 345 0 345 0 0 -110z m0 -310 l0 -110 -345 0 -345 0 0 110 0 110 345 0 345
0 0 -110z"/>
<path d="M10009 12673 c-24 -89 -76 -210 -114 -267 -20 -31 -36 -58 -34 -60
12 -10 70 -36 81 -36 29 0 110 159 151 297 l25 82 -46 15 c-25 9 -46 16 -47
16 -2 0 -8 -21 -16 -47z"/>
<path d="M10821 12681 c-9 -31 -68 -154 -159 -332 -3 -6 79 -43 83 -37 19 27
86 149 134 243 l60 120 -47 22 c-26 12 -50 22 -53 22 -3 1 -11 -17 -18 -38z"/>
<path d="M10350 10596 c0 -487 -2 -544 -16 -550 -9 -3 -51 -6 -94 -6 l-78 0
16 -50 17 -50 70 0 c85 0 136 13 161 41 18 19 19 45 24 332 l5 311 47 -80 c99
-171 251 -341 382 -428 l59 -39 38 44 37 43 -52 30 c-103 58 -225 169 -315
285 l-42 54 145 147 c81 80 146 149 146 152 0 2 -19 19 -43 36 l-44 31 -36
-49 c-59 -79 -199 -230 -213 -230 -7 0 -35 47 -63 103 l-51 104 0 156 0 157
-50 0 -50 0 0 -544z"/>
<path d="M12060 10490 l0 -520 50 0 50 0 0 55 0 55 390 0 390 0 0 -50 0 -50
50 0 50 0 0 515 0 515 -490 0 -490 0 0 -520z m880 55 l0 -365 -390 0 -390 0 0
365 0 365 390 0 390 0 0 -365z"/>
<path d="M9840 10760 l0 -50 160 0 160 0 -6 -27 c-16 -70 -76 -210 -120 -284
-48 -79 -151 -197 -207 -235 l-28 -19 39 -38 39 -38 44 36 c146 120 272 336
329 565 12 47 24 92 26 101 8 30 -49 39 -247 39 l-189 0 0 -50z"/>
<path d="M12500 9140 l0 -160 -261 0 -260 0 3 -47 3 -48 233 -5 233 -5 -56
-90 c-104 -166 -253 -325 -387 -415 -37 -25 -67 -47 -67 -50 0 -3 15 -22 34
-43 l34 -39 38 26 c120 82 274 245 377 398 l71 108 3 -335 2 -335 50 0 50 0 2
337 3 336 33 -53 c53 -84 139 -195 218 -280 71 -75 210 -190 230 -190 5 0 23
18 41 39 l32 39 -52 35 c-139 92 -291 249 -398 411 -33 49 -59 93 -59 98 0 4
106 8 235 8 l235 0 0 50 0 50 -260 0 -260 0 0 160 0 160 -50 0 -50 0 0 -160z"/>
<path d="M9860 9110 l0 -50 198 0 197 0 -3 -47 c-17 -296 -70 -475 -186 -629
-53 -71 -110 -120 -200 -173 l-65 -38 37 -36 c21 -21 41 -37 46 -37 15 0 147
91 192 132 162 149 259 402 281 730 l6 98 234 0 235 0 -7 -132 c-13 -277 -27
-476 -40 -553 -27 -162 -38 -170 -206 -162 l-119 6 15 -29 c8 -16 15 -38 15
-49 0 -28 30 -34 158 -30 125 5 164 21 199 85 40 73 64 301 79 757 l7 207
-537 0 -536 0 0 -50z"/>
<path d="M10350 7250 l0 -210 -225 0 -225 0 0 -50 0 -50 225 0 225 0 -2 -262
-3 -263 -267 -3 -268 -2 0 -45 0 -45 590 0 590 0 0 45 0 45 -270 0 -270 0 0
265 0 265 225 0 225 0 0 50 0 50 -225 0 -225 0 0 210 0 210 -50 0 -50 0 0
-210z"/>
<path d="M12166 7448 c-3 -7 -12 -40 -21 -73 -42 -154 -110 -312 -180 -415
-20 -30 -32 -56 -27 -58 5 -1 24 -14 43 -28 32 -23 34 -24 47 -7 27 36 91 150
107 191 15 38 21 42 51 42 l34 0 0 -420 0 -420 45 0 45 0 0 420 0 420 120 0
120 0 0 50 0 50 -175 0 c-96 0 -175 3 -175 8 1 4 16 57 35 117 18 61 30 113
27 116 -4 4 -26 10 -49 14 -32 5 -44 3 -47 -7z"/>
<path d="M12665 7428 c-29 -138 -123 -370 -188 -465 l-36 -53 43 -29 43 -30
46 77 c25 42 56 98 68 125 l23 47 93 0 93 0 -2 -367 -3 -368 -98 -3 c-89 -2
-98 -4 -92 -20 4 -9 11 -32 17 -49 9 -32 10 -33 67 -33 85 0 162 17 188 42
l23 21 0 389 0 388 100 0 100 0 0 50 0 50 -226 0 c-211 0 -226 1 -219 18 14
35 66 224 63 227 -2 2 -24 6 -49 10 l-47 7 -7 -34z"/>
<path d="M10355 5618 c-16 -5 -36 -11 -43 -14 -9 -2 -4 -20 18 -63 16 -33 30
-65 30 -71 0 -6 -89 -10 -260 -10 l-260 0 0 -145 0 -145 50 0 50 0 0 100 0
100 460 0 460 0 0 -85 0 -85 50 0 50 0 0 130 0 130 -237 0 -238 0 -39 85 c-21
47 -44 85 -50 84 -6 0 -24 -5 -41 -11z"/>
<path d="M12410 5574 c-50 -70 -196 -219 -264 -270 -33 -26 -61 -49 -60 -53 2
-25 17 -81 23 -81 3 0 80 7 170 15 91 8 166 13 168 11 12 -12 -357 -226 -390
-226 -20 0 -21 -10 -5 -62 12 -39 12 -40 52 -34 38 6 376 36 404 36 10 0 12
-42 10 -192 l-3 -193 -93 -3 c-68 -2 -93 -6 -89 -15 2 -7 10 -29 18 -50 l14
-39 85 7 c96 8 143 24 159 53 7 13 11 99 11 230 l0 209 98 7 c53 3 131 9 174
12 l76 6 37 -51 c20 -28 40 -51 43 -51 4 0 24 11 45 24 l38 23 -45 59 c-24 32
-85 102 -134 154 l-89 95 -37 -17 c-20 -10 -36 -21 -36 -25 0 -5 25 -36 56
-70 l56 -63 -44 -1 c-24 0 -160 -8 -303 -18 -143 -10 -261 -17 -263 -15 -2 1
27 19 65 40 105 58 317 204 431 294 l102 83 -37 28 c-21 16 -44 29 -51 29 -8
0 -42 -24 -75 -53 -142 -122 -130 -117 -279 -127 -223 -16 -213 -26 -91 93 58
56 123 123 145 149 l39 47 -49 25 -49 25 -33 -45z"/>
<path d="M10185 5245 c-61 -48 -199 -128 -275 -160 -25 -10 -46 -20 -48 -21
-5 -3 50 -84 57 -84 28 1 286 162 356 223 l39 34 -29 26 c-17 15 -33 27 -36
27 -3 0 -32 -20 -64 -45z"/>
<path d="M10515 5260 c-16 -16 -27 -31 -24 -33 2 -2 68 -41 147 -86 79 -45
166 -97 194 -115 l50 -34 30 34 c16 18 27 38 23 44 -10 16 -368 220 -387 220
-2 0 -17 -13 -33 -30z"/>
<path d="M9982 4928 l3 -43 183 -3 182 -2 0 -165 0 -165 -250 0 -250 0 0 -45
0 -45 555 0 555 0 0 45 0 45 -255 0 -255 0 0 165 0 165 185 0 185 0 0 45 0 45
-421 0 -420 0 3 -42z"/>
<path d="M12790 4799 c-19 -12 -36 -22 -38 -24 -1 -1 66 -71 149 -154 l153
-151 38 25 39 26 -30 38 c-25 31 -156 155 -256 243 -20 17 -22 17 -55 -3z"/>
<path d="M12206 4761 c-39 -53 -211 -221 -227 -221 -21 0 -7 -21 31 -46 l40
-27 54 47 c78 67 247 260 235 270 -8 6 -72 26 -85 26 -7 0 -28 -22 -48 -49z"/>
<path d="M12780 3150 l0 -570 50 0 50 0 0 570 0 570 -50 0 -50 0 0 -570z"/>
<path d="M10020 3508 c0 -239 -13 -420 -36 -515 -24 -100 -86 -222 -145 -287
l-52 -57 33 -35 c19 -18 37 -34 42 -34 13 0 115 134 144 190 15 30 40 91 55
135 l27 80 316 3 316 2 0 -145 c0 -178 8 -170 -162 -163 -65 3 -118 3 -118 -1
0 -3 7 -25 16 -48 l17 -43 109 0 c141 0 194 13 219 54 18 29 19 58 19 549 l0
517 -400 0 -400 0 0 -202z m700 2 l0 -110 -305 0 -305 0 0 103 c0 57 3 107 7
110 3 4 141 7 305 7 l298 0 0 -110z m-5 -315 l0 -110 -307 -3 -306 -2 5 102
c2 57 6 109 9 116 3 10 68 12 301 10 l298 -3 0 -110z"/>
<path d="M11920 3408 c0 -320 -11 -440 -48 -548 -24 -68 -62 -144 -96 -189
l-25 -33 32 -26 c18 -15 35 -30 38 -35 10 -14 67 63 104 138 76 157 95 298 95
703 l0 292 -50 0 -50 0 0 -302z"/>
<path d="M12340 3174 l0 -485 48 3 47 3 3 483 2 482 -50 0 -50 0 0 -486z"/>
<path d="M8695 1651 c-72 -30 -91 -147 -30 -187 13 -9 56 -24 95 -34 84 -22
100 -33 100 -71 0 -34 -23 -49 -76 -49 -29 0 -43 7 -70 35 -26 28 -40 35 -69
35 -33 0 -36 -2 -30 -22 26 -88 124 -134 228 -107 59 14 88 46 94 103 9 77
-24 109 -147 141 -36 9 -71 21 -77 27 -20 16 -15 45 9 62 35 25 76 20 110 -14
21 -22 39 -30 64 -30 32 0 35 2 29 23 -9 29 -43 65 -77 83 -29 15 -120 18
-153 5z"/>
<path d="M9095 1646 c-65 -29 -105 -101 -105 -189 0 -93 35 -157 105 -195 40
-21 141 -20 181 1 137 72 140 308 4 377 -46 23 -139 26 -185 6z m154 -72 c30
-21 51 -73 51 -124 0 -102 -88 -167 -168 -126 -47 24 -65 67 -60 142 3 54 9
68 33 94 24 25 37 30 75 30 26 0 56 -7 69 -16z"/>
<path d="M9430 1513 c0 -172 14 -219 72 -249 47 -26 143 -25 188 1 60 35 70
69 70 243 l0 153 -37 -3 -38 -3 -3 -152 c-2 -150 -3 -152 -29 -172 -36 -29
-88 -27 -118 4 -24 23 -25 28 -25 175 l0 150 -40 0 -40 0 0 -147z"/>
<path d="M9830 1455 l0 -205 40 0 40 0 0 81 0 80 46 -3 47 -3 30 -77 30 -78
39 0 c45 0 45 -2 -3 110 l-28 65 25 20 c44 35 49 131 9 175 -26 29 -78 40
-182 40 l-93 0 0 -205z m208 119 c26 -18 28 -50 5 -76 -12 -13 -31 -18 -75
-18 l-58 0 0 55 0 55 53 0 c31 0 61 -6 75 -16z"/>
<path d="M10295 1646 c-104 -45 -143 -200 -79 -312 28 -50 57 -70 120 -84 93
-21 191 27 209 103 7 26 5 27 -30 27 -29 0 -43 -7 -71 -36 -31 -33 -37 -36
-75 -31 -51 7 -86 38 -100 90 -18 66 9 154 53 178 11 6 39 11 62 11 33 -1 47
-7 68 -31 21 -24 36 -31 63 -31 21 0 35 5 35 13 0 23 -40 77 -72 97 -39 24
-136 27 -183 6z"/>
<path d="M10610 1455 l0 -205 135 0 135 0 0 35 0 35 -100 0 -100 0 0 50 0 50
90 0 90 0 0 35 0 35 -90 0 -90 0 0 50 0 50 100 0 100 0 0 35 0 35 -135 0 -135
0 0 -205z"/>
<path d="M10940 1455 l0 -205 98 0 c116 0 164 12 192 47 30 38 27 106 -5 138
-13 14 -29 25 -34 25 -6 0 1 11 14 25 19 18 25 35 25 68 0 80 -51 107 -202
107 l-88 0 0 -205z m191 125 c22 -12 26 -59 7 -78 -7 -7 -36 -12 -65 -12 l-53
0 0 50 0 50 46 0 c25 0 54 -5 65 -10z m36 -176 c15 -21 8 -53 -15 -71 -9 -7
-42 -13 -74 -13 l-58 0 0 56 0 57 67 -6 c48 -4 70 -10 80 -23z"/>
<path d="M11405 1646 c-106 -46 -144 -210 -74 -322 52 -85 192 -106 282 -42
75 53 97 200 45 290 -35 59 -92 88 -169 88 -30 -1 -68 -7 -84 -14z m165 -86
c34 -37 46 -99 31 -156 -22 -83 -104 -117 -171 -72 -67 46 -75 174 -15 234 19
19 35 24 76 24 44 0 55 -4 79 -30z"/>
<path d="M11830 1638 c-77 -39 -114 -138 -91 -242 16 -73 59 -122 124 -141
144 -43 260 46 259 197 -1 98 -43 170 -115 197 -48 19 -128 13 -177 -11z m166
-66 c33 -26 47 -61 47 -117 0 -95 -59 -156 -136 -141 -95 18 -131 174 -57 248
24 23 37 28 77 28 30 0 56 -7 69 -18z"/>
<path d="M12187 1653 c-4 -3 -7 -96 -7 -205 l0 -198 40 0 39 0 3 92 3 91 70
-91 70 -91 48 0 c27 -1 46 2 44 7 -3 4 -39 50 -81 102 -42 52 -76 97 -76 100
0 3 34 46 75 97 41 50 75 94 75 97 0 3 -19 6 -42 6 -42 0 -44 -2 -113 -91
l-70 -90 -3 90 -3 91 -33 0 c-18 0 -36 -3 -39 -7z"/>
<path d="M12795 1650 c-3 -5 -14 -33 -24 -62 -11 -29 -42 -117 -70 -196 l-50
-143 41 3 c37 3 42 6 53 38 l12 35 80 3 80 3 12 -41 c11 -38 14 -40 52 -40 29
0 40 4 37 13 -3 6 -35 99 -73 205 l-68 192 -38 0 c-21 0 -41 -4 -44 -10z m70
-161 c15 -44 25 -82 22 -85 -3 -3 -27 -4 -55 -2 l-50 3 26 83 c14 45 26 82 28
82 1 0 14 -36 29 -81z"/>
<path d="M13067 1653 c-4 -3 -7 -96 -7 -205 l0 -198 40 0 40 0 0 81 0 80 47
-3 47 -3 31 -77 30 -78 41 0 42 0 -36 85 -35 85 21 23 c64 69 50 170 -29 201
-40 16 -218 23 -232 9z m201 -79 c12 -8 22 -26 22 -39 0 -40 -25 -55 -91 -55
l-59 0 0 55 0 55 53 0 c31 0 61 -6 75 -16z"/>
</g>
</svg>
