<?xml version="1.0" standalone="no"?>
<!DOCTYPE svg PUBLIC "-//W3C//DTD SVG 20010904//EN"
 "http://www.w3.org/TR/2001/REC-SVG-20010904/DTD/svg10.dtd">
<svg version="1.0" xmlns="http://www.w3.org/2000/svg"
 width="115.000000pt" height="83.000000pt" viewBox="0 0 115.000000 83.000000"
 preserveAspectRatio="xMidYMid meet">

<g transform="translate(0.000000,83.000000) scale(0.100000,-0.100000)"
fill="#000000" stroke="none">
<path d="M85 761 c-3 -6 13 -68 37 -138 62 -182 87 -188 148 -37 20 50 42 89
49 89 8 0 20 -18 27 -40 34 -99 48 -127 70 -142 23 -14 26 -14 44 2 10 9 31
48 46 86 15 38 35 76 45 85 18 16 21 12 63 -80 35 -75 49 -96 65 -96 26 0 62
48 97 128 15 34 33 62 41 62 8 0 25 -25 39 -56 31 -71 81 -144 98 -144 23 0
44 34 85 139 44 112 47 126 31 136 -6 4 -22 -19 -36 -52 -54 -124 -64 -143
-78 -143 -18 0 -41 36 -67 106 -27 71 -52 98 -78 84 -11 -5 -40 -48 -65 -94
-26 -47 -51 -88 -56 -91 -13 -8 -36 30 -66 107 -32 84 -54 100 -88 63 -13 -14
-34 -52 -46 -85 -12 -32 -31 -67 -42 -77 -19 -17 -20 -17 -34 1 -14 20 -34 71
-56 146 -20 70 -42 65 -79 -17 -53 -119 -62 -134 -78 -131 -9 2 -31 40 -51 90
-38 94 -53 117 -65 99z"/>
<path d="M80 402 c0 -17 48 -149 75 -205 44 -91 61 -80 135 84 8 19 21 34 29
34 8 0 28 -34 47 -80 56 -133 77 -133 139 1 28 60 49 94 60 94 9 0 31 -33 58
-87 36 -75 46 -88 66 -88 20 0 32 14 70 85 26 48 53 85 61 85 9 0 32 -35 57
-85 50 -102 74 -119 109 -75 26 33 80 160 90 214 6 29 4 33 -12 29 -13 -2 -27
-28 -49 -85 -34 -94 -55 -123 -75 -101 -6 7 -31 49 -53 93 -57 109 -72 110
-126 12 -23 -41 -48 -80 -57 -87 -21 -18 -35 -2 -71 84 -38 91 -55 102 -93 57
-16 -19 -41 -63 -56 -98 -22 -51 -31 -63 -50 -63 -18 0 -26 10 -40 48 -39 107
-53 132 -72 132 -23 0 -37 -15 -47 -50 -16 -55 -57 -130 -71 -130 -9 0 -24 21
-35 48 -48 113 -63 142 -76 142 -7 0 -13 -4 -13 -8z"/>
</g>
</svg>
