<?xml version="1.0" standalone="no"?>
<!DOCTYPE svg PUBLIC "-//W3C//DTD SVG 20010904//EN"
 "http://www.w3.org/TR/2001/REC-SVG-20010904/DTD/svg10.dtd">
<svg version="1.0" xmlns="http://www.w3.org/2000/svg"
 width="81.000000pt" height="107.000000pt" viewBox="0 0 81.000000 107.000000"
 preserveAspectRatio="xMidYMid meet">

<g transform="translate(0.000000,107.000000) scale(0.100000,-0.100000)"
fill="#000000" stroke="none">
<path d="M395 883 c-137 -2 -256 -5 -262 -8 -8 -3 33 -74 112 -194 69 -104
125 -195 125 -200 0 -6 -54 -96 -120 -200 -66 -104 -120 -192 -120 -195 0 -3
129 -6 286 -6 241 0 285 2 281 14 -3 8 -58 94 -123 192 -64 99 -118 184 -121
190 -2 6 53 99 122 207 69 108 125 199 125 202 0 3 -12 4 -27 3 -16 -2 -140
-4 -278 -5z m195 -58 c0 -11 -174 -285 -181 -285 -5 0 -14 10 -20 23 -7 12
-45 73 -86 135 -40 62 -73 117 -73 123 0 5 73 9 180 9 99 0 180 -2 180 -5z
m-81 -545 l90 -145 -181 -3 c-99 -1 -183 -1 -185 2 -2 2 26 53 63 112 106 172
115 186 119 182 2 -2 45 -69 94 -148z"/>
</g>
</svg>
