<?xml version="1.0" standalone="no"?>
<!DOCTYPE svg PUBLIC "-//W3C//DTD SVG 20010904//EN"
 "http://www.w3.org/TR/2001/REC-SVG-20010904/DTD/svg10.dtd">
<svg version="1.0" xmlns="http://www.w3.org/2000/svg"
 width="114.000000pt" height="68.000000pt" viewBox="0 0 114.000000 68.000000"
 preserveAspectRatio="xMidYMid meet">

<g transform="translate(0.000000,68.000000) scale(0.100000,-0.100000)"
fill="#000000" stroke="none">
<path d="M461 461 c-6 -11 -11 -22 -11 -24 0 -3 30 -22 66 -44 l66 -38 -259
-5 -258 -5 0 -25 0 -25 265 -5 265 -5 -70 -39 c-38 -21 -72 -40 -74 -42 -2 -2
4 -14 12 -28 l17 -25 117 70 118 69 100 0 100 0 -70 -41 c-38 -22 -71 -42 -73
-44 -5 -5 22 -45 30 -45 12 0 268 154 268 161 0 7 -264 159 -277 159 -6 0 -15
-11 -20 -23 -11 -22 -7 -26 60 -65 l72 -41 -98 -1 -99 0 -101 59 c-130 76
-133 77 -146 52z"/>
</g>
</svg>
