<?xml version="1.0" standalone="no"?>
<!DOCTYPE svg PUBLIC "-//W3C//DTD SVG 20010904//EN"
 "http://www.w3.org/TR/2001/REC-SVG-20010904/DTD/svg10.dtd">
<svg version="1.0" xmlns="http://www.w3.org/2000/svg"
 width="77.000000pt" height="84.000000pt" viewBox="0 0 77.000000 84.000000"
 preserveAspectRatio="xMidYMid meet">

<g transform="translate(0.000000,84.000000) scale(0.100000,-0.100000)"
fill="#000000" stroke="none">
<path d="M173 744 c-13 -31 -9 -122 5 -136 9 -9 63 -14 192 -17 99 -2 180 -5
180 -8 0 -2 -10 -23 -22 -46 -22 -40 -23 -52 -20 -213 1 -95 -2 -182 -7 -196
-8 -22 -7 -27 9 -31 10 -3 28 2 39 9 40 28 50 128 31 308 -7 71 -6 96 5 124 9
20 15 67 15 113 l0 79 -37 1 c-159 3 -342 16 -368 25 -9 4 -18 -1 -22 -12z"/>
<path d="M190 427 c-29 -15 -37 -60 -39 -219 l-1 -98 30 0 c18 0 33 7 39 18 6
11 14 75 20 143 5 68 13 134 17 147 5 18 3 22 -17 22 -13 0 -35 -6 -49 -13z"/>
</g>
</svg>
