<?xml version="1.0" standalone="no"?>
<!DOCTYPE svg PUBLIC "-//W3C//DTD SVG 20010904//EN"
 "http://www.w3.org/TR/2001/REC-SVG-20010904/DTD/svg10.dtd">
<svg version="1.0" xmlns="http://www.w3.org/2000/svg"
 width="91.000000pt" height="92.000000pt" viewBox="0 0 91.000000 92.000000"
 preserveAspectRatio="xMidYMid meet">

<g transform="translate(0.000000,92.000000) scale(0.100000,-0.100000)"
fill="#000000" stroke="none">
<path d="M333 806 c-57 -18 -100 -47 -150 -98 -167 -174 -118 -456 99 -562
145 -71 306 -46 418 66 109 109 133 279 58 420 -62 116 -166 180 -303 185 -49
2 -96 -3 -122 -11z m206 -57 c83 -25 169 -111 192 -192 33 -115 2 -233 -80
-310 -148 -139 -386 -97 -483 86 -31 57 -33 203 -4 257 37 68 77 109 138 139
51 26 73 31 131 31 38 0 86 -5 106 -11z"/>
<path d="M388 658 c-46 -12 -117 -72 -134 -115 -54 -127 53 -284 193 -283 106
1 203 102 203 210 0 41 -45 125 -81 153 -33 24 -99 48 -129 46 -8 -1 -31 -5
-52 -11z m123 -73 c63 -33 89 -132 52 -196 -23 -39 -94 -73 -136 -65 -103 20
-156 118 -109 205 34 64 126 90 193 56z"/>
</g>
</svg>
