<?xml version="1.0" standalone="no"?>
<!DOCTYPE svg PUBLIC "-//W3C//DTD SVG 20010904//EN"
 "http://www.w3.org/TR/2001/REC-SVG-20010904/DTD/svg10.dtd">
<svg version="1.0" xmlns="http://www.w3.org/2000/svg"
 width="90.000000pt" height="87.000000pt" viewBox="0 0 90.000000 87.000000"
 preserveAspectRatio="xMidYMid meet">

<g transform="translate(0.000000,87.000000) scale(0.100000,-0.100000)"
fill="#000000" stroke="none">
<path d="M402 716 c-18 -32 -66 -85 -117 -132 -98 -90 -125 -127 -125 -174 0
-76 54 -130 130 -130 36 0 48 6 77 36 l34 36 -7 -43 c-4 -24 -15 -69 -25 -99
-11 -30 -20 -59 -22 -63 -1 -5 37 -10 86 -13 48 -2 87 -2 87 1 0 2 -11 38 -25
79 -14 41 -25 87 -25 102 l0 28 28 -27 c54 -52 120 -52 173 -1 16 15 32 42 35
60 11 58 -12 97 -120 206 -57 56 -113 122 -125 146 -12 23 -23 42 -25 42 -2 0
-18 -24 -34 -54z"/>
</g>
</svg>
