<?xml version="1.0" standalone="no"?>
<!DOCTYPE svg PUBLIC "-//W3C//DTD SVG 20010904//EN"
 "http://www.w3.org/TR/2001/REC-SVG-20010904/DTD/svg10.dtd">
<svg version="1.0" xmlns="http://www.w3.org/2000/svg"
 width="101.000000pt" height="102.000000pt" viewBox="0 0 101.000000 102.000000"
 preserveAspectRatio="xMidYMid meet">

<g transform="translate(0.000000,102.000000) scale(0.100000,-0.100000)"
fill="#000000" stroke="none">
<path d="M60 820 c0 -6 80 -140 178 -298 98 -158 196 -315 217 -350 21 -34 41
-62 44 -61 5 0 268 436 404 670 l29 49 -436 0 c-292 0 -436 -3 -436 -10z m746
-85 c-3 -8 -21 -40 -41 -70 l-35 -55 -223 0 -224 0 -37 59 c-20 32 -36 64 -36
70 0 8 89 11 301 11 263 0 300 -2 295 -15z m-116 -190 c0 -10 -173 -305 -179
-305 -7 0 -174 276 -179 295 -2 10 41 13 177 14 100 1 181 -1 181 -4z"/>
</g>
</svg>
