<?xml version="1.0" standalone="no"?>
<!DOCTYPE svg PUBLIC "-//W3C//DTD SVG 20010904//EN"
 "http://www.w3.org/TR/2001/REC-SVG-20010904/DTD/svg10.dtd">
<svg version="1.0" xmlns="http://www.w3.org/2000/svg"
 width="108.000000pt" height="58.000000pt" viewBox="0 0 108.000000 58.000000"
 preserveAspectRatio="xMidYMid meet">

<g transform="translate(0.000000,58.000000) scale(0.100000,-0.100000)"
fill="#000000" stroke="none">
<path d="M359 435 c-31 -8 -81 -25 -113 -39 -61 -27 -176 -104 -176 -117 0
-17 106 -93 175 -126 220 -104 501 -74 684 75 l44 36 -41 37 c-58 51 -168 106
-258 129 -90 23 -230 25 -315 5z m71 -37 c-86 -60 -94 -184 -14 -247 23 -18
24 -21 7 -21 -62 0 -240 79 -284 126 l-24 25 25 19 c44 34 147 80 222 100 96
25 108 25 68 -2z m260 -5 c86 -23 230 -104 230 -128 0 -25 -148 -100 -247
-126 -93 -23 -104 -24 -73 -2 93 65 102 173 20 247 -46 41 -46 41 70 9z"/>
</g>
</svg>
