<?xml version="1.0" standalone="no"?>
<!DOCTYPE svg PUBLIC "-//W3C//DTD SVG 20010904//EN"
 "http://www.w3.org/TR/2001/REC-SVG-20010904/DTD/svg10.dtd">
<svg version="1.0" xmlns="http://www.w3.org/2000/svg"
 width="108.000000pt" height="99.000000pt" viewBox="0 0 108.000000 99.000000"
 preserveAspectRatio="xMidYMid meet">

<g transform="translate(0.000000,99.000000) scale(0.100000,-0.100000)"
fill="#000000" stroke="none">
<path d="M510 965 c-5 -14 -10 -41 -10 -60 0 -32 -2 -34 -69 -54 -116 -35
-204 -133 -237 -261 l-11 -45 -57 -3 c-54 -3 -56 -4 -56 -32 0 -28 1 -29 57
-32 l57 -3 8 -38 c19 -89 99 -197 179 -237 20 -11 57 -24 82 -31 l46 -11 3
-57 c3 -55 3 -56 36 -59 l32 -3 0 59 0 60 37 7 c127 24 255 148 281 272 l8 38
57 3 c40 2 57 7 57 17 0 7 3 20 6 29 5 13 -2 16 -32 17 -74 2 -86 10 -101 68
-33 131 -145 237 -272 257 l-40 6 -3 57 c-3 49 -6 56 -25 59 -17 3 -26 -3 -33
-23z m-5 -350 l0 -70 -132 -3 c-149 -3 -144 -6 -118 69 34 96 96 159 188 190
l52 18 5 -67 c3 -37 5 -98 5 -137z m161 175 c81 -35 149 -119 169 -207 l7 -33
-49 0 c-26 0 -87 -2 -135 -4 l-88 -3 0 138 0 139 28 -6 c15 -4 45 -14 68 -24z
m-161 -440 c0 -152 1 -151 -103 -99 -80 40 -139 113 -157 197 l-7 32 134 0
133 0 0 -130z m331 104 c-29 -114 -126 -208 -238 -231 l-28 -5 0 131 0 131
136 0 136 0 -6 -26z"/>
</g>
</svg>
