<?xml version="1.0" standalone="no"?>
<!DOCTYPE svg PUBLIC "-//W3C//DTD SVG 20010904//EN"
 "http://www.w3.org/TR/2001/REC-SVG-20010904/DTD/svg10.dtd">
<svg version="1.0" xmlns="http://www.w3.org/2000/svg"
 width="109.000000pt" height="60.000000pt" viewBox="0 0 109.000000 60.000000"
 preserveAspectRatio="xMidYMid meet">

<g transform="translate(0.000000,60.000000) scale(0.100000,-0.100000)"
fill="#000000" stroke="none">
<path d="M403 469 c-156 -49 -291 -217 -296 -366 l-2 -48 440 0 440 0 -1 57
c-1 69 -44 166 -100 228 -118 131 -312 183 -481 129z m258 -45 c136 -40 246
-157 274 -291 l7 -33 -391 0 -391 0 0 28 c0 35 41 123 80 172 39 49 121 104
185 123 66 20 168 21 236 1z"/>
</g>
</svg>
