<?xml version="1.0" standalone="no"?>
<!DOCTYPE svg PUBLIC "-//W3C//DTD SVG 20010904//EN"
 "http://www.w3.org/TR/2001/REC-SVG-20010904/DTD/svg10.dtd">
<svg version="1.0" xmlns="http://www.w3.org/2000/svg"
 width="107.000000pt" height="102.000000pt" viewBox="0 0 107.000000 102.000000"
 preserveAspectRatio="xMidYMid meet">

<g transform="translate(0.000000,102.000000) scale(0.100000,-0.100000)"
fill="#000000" stroke="none">
<path d="M223 867 c-61 -50 -96 -94 -125 -157 -20 -44 -46 -165 -37 -174 2 -2
69 -6 148 -7 l143 -3 13 38 c7 21 24 49 36 62 l23 25 -54 104 c-30 58 -64 116
-75 130 l-20 26 -52 -44z"/>
<path d="M697 882 c-8 -9 -24 -36 -36 -59 -12 -24 -39 -71 -61 -105 -40 -61
-40 -62 -21 -82 11 -12 29 -43 41 -69 l21 -47 139 0 c76 0 141 4 144 8 9 16
-23 151 -49 202 -30 59 -96 135 -136 155 -23 13 -28 12 -42 -3z"/>
<path d="M454 605 c-22 -9 -35 -24 -44 -49 -14 -43 -8 -65 25 -96 37 -34 81
-31 117 8 35 41 36 74 1 111 -35 37 -60 44 -99 26z"/>
<path d="M358 313 c-30 -48 -64 -105 -77 -126 l-23 -37 59 -28 c52 -24 69 -27
168 -27 92 0 118 4 158 22 26 12 47 28 47 35 0 8 -29 65 -64 128 -67 120 -63
117 -126 109 -8 -2 -32 1 -52 5 l-36 7 -54 -88z"/>
</g>
</svg>
