<?xml version="1.0" standalone="no"?>
<!DOCTYPE svg PUBLIC "-//W3C//DTD SVG 20010904//EN"
 "http://www.w3.org/TR/2001/REC-SVG-20010904/DTD/svg10.dtd">
<svg version="1.0" xmlns="http://www.w3.org/2000/svg"
 width="81.000000pt" height="82.000000pt" viewBox="0 0 81.000000 82.000000"
 preserveAspectRatio="xMidYMid meet">

<g transform="translate(0.000000,82.000000) scale(0.100000,-0.100000)"
fill="#000000" stroke="none">
<path d="M225 656 c-16 -8 -46 -30 -65 -50 -34 -36 -35 -40 -35 -115 0 -71 3
-84 44 -166 51 -103 135 -194 222 -240 l57 -29 68 58 c134 115 204 244 206
385 1 72 -29 123 -85 146 -70 28 -129 16 -185 -38 l-32 -31 -28 31 c-15 18
-48 38 -76 47 -58 19 -53 19 -91 2z m106 -83 c8 -10 22 -34 31 -54 11 -24 25
-39 42 -43 29 -7 66 8 66 27 0 7 14 29 31 50 28 34 36 38 72 35 30 -2 45 -10
60 -31 19 -25 20 -33 10 -102 -6 -41 -23 -99 -37 -129 -31 -62 -105 -150 -146
-171 -25 -13 -31 -12 -72 14 -139 88 -237 323 -166 398 27 29 88 32 109 6z"/>
</g>
</svg>
