<?xml version="1.0" standalone="no"?>
<!DOCTYPE svg PUBLIC "-//W3C//DTD SVG 20010904//EN"
 "http://www.w3.org/TR/2001/REC-SVG-20010904/DTD/svg10.dtd">
<svg version="1.0" xmlns="http://www.w3.org/2000/svg"
 width="90.000000pt" height="115.000000pt" viewBox="0 0 90.000000 115.000000"
 preserveAspectRatio="xMidYMid meet">

<g transform="translate(0.000000,115.000000) scale(0.100000,-0.100000)"
fill="#000000" stroke="none">
<path d="M408 923 l-3 -147 -108 127 c-60 70 -114 127 -121 127 -13 0 -66 -51
-66 -64 0 -5 67 -79 150 -166 l150 -158 0 -143 c0 -79 3 -187 6 -239 l7 -96
46 6 46 5 -3 235 -3 235 98 114 c54 63 124 144 155 180 32 36 57 69 58 73 0
12 -91 41 -99 32 -4 -5 -52 -63 -107 -128 l-99 -120 -3 137 -3 137 -49 0 -49
0 -3 -147z"/>
</g>
</svg>
