<?xml version="1.0" standalone="no"?>
<!DOCTYPE svg PUBLIC "-//W3C//DTD SVG 20010904//EN"
 "http://www.w3.org/TR/2001/REC-SVG-20010904/DTD/svg10.dtd">
<svg version="1.0" xmlns="http://www.w3.org/2000/svg"
 width="82.000000pt" height="92.000000pt" viewBox="0 0 82.000000 92.000000"
 preserveAspectRatio="xMidYMid meet">

<g transform="translate(0.000000,92.000000) scale(0.100000,-0.100000)"
fill="#000000" stroke="none">
<path d="M232 488 c-72 -194 -133 -360 -134 -368 -2 -10 6 -16 24 -18 33 -4
23 -25 127 258 44 118 100 268 125 333 25 66 46 125 46 133 0 9 -11 14 -29 14
-28 0 -29 -2 -159 -352z"/>
<path d="M667 832 c-3 -4 -28 -68 -55 -142 -28 -74 -89 -236 -136 -360 -47
-124 -86 -226 -86 -227 0 -10 71 0 75 10 2 6 63 169 134 361 72 193 130 351
128 351 -10 8 -57 13 -60 7z"/>
</g>
</svg>
