<?xml version="1.0" standalone="no"?>
<!DOCTYPE svg PUBLIC "-//W3C//DTD SVG 20010904//EN"
 "http://www.w3.org/TR/2001/REC-SVG-20010904/DTD/svg10.dtd">
<svg version="1.0" xmlns="http://www.w3.org/2000/svg"
 width="101.000000pt" height="71.000000pt" viewBox="0 0 101.000000 71.000000"
 preserveAspectRatio="xMidYMid meet">

<g transform="translate(0.000000,71.000000) scale(0.100000,-0.100000)"
fill="#000000" stroke="none">
<path d="M223 562 c-17 -9 -66 -48 -108 -86 l-77 -69 21 -20 20 -20 68 60
c137 120 145 121 303 21 100 -64 120 -72 171 -76 48 -4 65 0 106 22 51 28 153
117 153 133 0 6 -8 17 -17 26 -17 14 -23 11 -88 -45 -113 -97 -144 -100 -258
-30 -178 108 -224 121 -294 84z"/>
<path d="M249 316 c-40 -14 -61 -29 -137 -98 -51 -45 -51 -46 -32 -63 19 -18
22 -17 68 21 140 117 161 117 346 1 106 -67 129 -73 201 -52 45 13 70 30 131
87 75 71 75 72 55 91 -19 20 -20 20 -88 -40 -82 -73 -100 -83 -151 -83 -29 0
-60 13 -123 51 -160 98 -199 111 -270 85z"/>
</g>
</svg>
