<?xml version="1.0" standalone="no"?>
<!DOCTYPE svg PUBLIC "-//W3C//DTD SVG 20010904//EN"
 "http://www.w3.org/TR/2001/REC-SVG-20010904/DTD/svg10.dtd">
<svg version="1.0" xmlns="http://www.w3.org/2000/svg"
 width="1587.000000pt" height="2245.000000pt" viewBox="0 0 1587.000000 2245.000000"
 preserveAspectRatio="xMidYMid meet">

<g transform="translate(0.000000,2245.000000) scale(0.100000,-0.100000)"
fill="#000000" stroke="none">
<path d="M10751 20904 c-58 -24 -106 -46 -109 -48 -2 -2 28 -51 67 -109 69
-103 181 -295 181 -309 0 -5 -146 -8 -325 -8 l-325 0 0 -120 0 -120 505 0
c278 0 505 -3 505 -7 0 -14 -41 -178 -61 -245 l-20 -68 -324 0 -325 0 0 -905
0 -905 920 0 920 0 0 778 c0 427 -3 834 -7 905 l-6 127 -454 0 c-250 0 -453 3
-451 8 2 4 32 76 68 160 l65 152 552 0 553 0 0 120 0 120 -358 2 -359 3 133
200 c73 110 133 205 134 211 0 12 -258 90 -267 81 -3 -3 -36 -63 -74 -133 -38
-69 -104 -180 -147 -245 l-77 -119 -355 0 -355 0 90 41 c50 23 94 44 98 49 24
22 -240 431 -276 429 -7 0 -59 -20 -116 -45z m1319 -1419 l0 -155 -640 0 -640
0 0 155 0 155 640 0 640 0 0 -155z m0 -520 l0 -165 -640 0 -640 0 0 165 0 165
640 0 640 0 0 -165z m0 -525 l0 -160 -640 0 -640 0 0 160 0 160 640 0 640 0 0
-160z"/>
<path d="M9403 20723 l-103 -65 56 -62 c193 -212 237 -263 323 -371 53 -66
110 -141 126 -167 17 -27 33 -48 38 -48 4 0 59 34 122 77 l115 76 -27 36 c-94
126 -200 248 -357 408 -98 101 -181 183 -185 182 -3 0 -52 -30 -108 -66z"/>
<path d="M9240 19435 l0 -135 265 0 265 0 0 -595 0 -595 -77 -39 c-43 -21
-117 -68 -165 -103 -83 -61 -318 -265 -318 -276 0 -3 39 -57 86 -120 l87 -115
50 59 c218 252 379 378 483 376 51 0 92 -21 236 -118 142 -95 223 -137 355
-180 245 -80 474 -99 1093 -91 523 7 1005 24 1036 37 16 6 23 21 28 60 4 28
20 88 36 133 16 45 27 83 25 85 -1 2 -77 -4 -166 -12 -444 -42 -1357 -62
-1644 -36 -212 19 -418 71 -550 138 -27 13 -110 63 -182 110 l-133 84 0 734 0
734 -405 0 -405 0 0 -135z"/>
<path d="M10000 16155 l0 -495 -180 0 -180 0 0 365 0 365 -50 0 -50 0 0 -415
0 -415 465 0 465 0 0 -51 0 -50 48 3 47 3 3 463 2 462 -50 0 -50 0 0 -365 0
-365 -185 0 -185 0 0 495 0 495 -50 0 -50 0 0 -495z"/>
<path d="M11600 16020 l0 -550 50 0 50 0 0 45 0 45 325 0 325 0 0 -40 0 -40
55 0 55 0 0 545 0 545 -430 0 -430 0 0 -550z m750 280 l0 -180 -325 0 -325 0
0 180 0 180 325 0 325 0 0 -180z m0 -460 l0 -180 -325 0 -325 0 0 180 0 180
325 0 325 0 0 -180z"/>
<path d="M12345 14804 c-110 -30 -361 -60 -751 -90 l-71 -5 12 -41 12 -41 74
2 c41 1 136 8 213 15 101 9 139 9 143 1 2 -7 3 -52 1 -101 l-3 -89 -227 -3
-228 -2 0 -45 0 -45 228 -2 227 -3 0 -105 0 -105 -272 -3 -273 -2 0 -45 0 -45
273 -2 272 -3 3 -136 c1 -75 -2 -148 -7 -163 l-11 -26 -134 0 -135 0 22 -51
22 -51 118 6 c126 7 159 15 195 48 21 21 22 28 22 200 l0 178 275 0 275 0 0
45 0 45 -272 2 -273 3 -3 108 -3 107 236 0 235 0 0 45 0 45 -232 2 -233 3 0
104 0 105 130 21 c149 25 275 54 275 64 0 11 -65 71 -75 70 -6 0 -32 -7 -60
-15z"/>
<path d="M9480 14675 l0 -45 190 0 c105 0 190 -2 190 -4 0 -2 -16 -43 -36 -92
-72 -180 -174 -333 -307 -461 l-84 -80 34 -37 34 -37 62 54 c34 30 80 77 102
105 22 28 43 51 48 52 4 0 7 -115 7 -255 l0 -255 45 0 45 0 0 45 0 45 315 0
315 0 0 -45 0 -45 50 0 50 0 0 330 0 330 -360 0 c-203 0 -360 4 -360 9 0 5 20
46 44 92 24 46 58 121 76 167 l33 82 323 0 324 0 0 45 0 45 -570 0 -570 0 0
-45z m960 -675 l0 -190 -315 0 -315 0 0 190 0 190 315 0 315 0 0 -190z"/>
<path d="M4513 14640 c-104 -47 -212 -282 -275 -600 -19 -97 -22 -147 -22
-320 0 -176 3 -218 22 -297 l22 -92 -31 -58 c-42 -78 -93 -213 -124 -326 -21
-78 -54 -269 -55 -316 0 -11 -18 -12 -102 -6 -57 4 -168 8 -248 9 -142 1 -145
1 -148 -21 -4 -29 1 -30 233 -43 105 -6 205 -13 222 -16 37 -6 37 -3 53 -148
7 -55 14 -105 16 -111 7 -16 -20 -23 -136 -35 -236 -25 -511 -94 -510 -128 0
-4 4 -14 9 -22 8 -12 33 -9 168 23 188 44 399 79 450 75 36 -3 38 -5 70 -83
18 -44 31 -88 30 -98 -1 -14 -35 -32 -127 -68 -173 -69 -374 -175 -395 -209
-10 -16 5 -50 21 -50 8 0 43 18 78 40 111 70 415 210 456 210 9 0 31 -24 49
-54 18 -30 50 -78 72 -107 24 -32 35 -56 30 -63 -13 -18 -137 -334 -171 -437
-74 -228 -122 -468 -140 -709 -5 -74 -10 -143 -10 -153 0 -17 -2 -17 -32 -1
-137 70 -328 241 -414 371 -52 77 -101 193 -121 287 -23 100 -20 274 6 415 34
184 26 269 -32 345 -76 99 -263 104 -398 10 -44 -30 -103 -104 -147 -184 -118
-215 -135 -556 -40 -850 30 -96 120 -263 193 -362 209 -280 575 -538 934 -659
64 -21 124 -39 134 -39 13 0 24 -14 35 -42 33 -86 115 -244 168 -326 76 -117
218 -260 334 -337 214 -143 398 -191 812 -212 73 -4 109 -1 145 11 66 22 664
27 703 6 15 -9 69 -15 140 -18 97 -3 124 0 174 17 45 16 84 21 160 21 127 0
267 22 350 56 53 21 79 40 143 107 172 180 313 411 427 699 53 135 118 377
140 523 54 356 13 800 -109 1178 -40 125 -148 397 -171 432 -15 23 -14 27 21
85 20 33 38 60 40 60 11 0 110 -43 190 -82 101 -49 156 -80 268 -151 43 -28
84 -47 92 -43 26 10 16 43 -21 74 -63 52 -249 158 -373 212 -67 29 -121 56
-121 60 0 3 15 44 34 91 26 64 39 85 55 87 49 8 328 -55 479 -108 90 -31 112
-30 112 5 0 28 -28 42 -165 83 -109 33 -253 65 -388 87 -34 6 -38 9 -33 28 4
12 14 66 23 119 15 90 18 97 42 103 35 9 256 24 362 25 93 0 125 13 113 44 -7
17 -20 18 -218 12 -116 -3 -227 -7 -246 -8 l-35 -3 -7 133 c-8 153 -27 271
-63 395 l-25 88 20 82 c11 45 25 139 32 210 26 290 -46 687 -165 912 -83 154
-162 180 -341 109 -189 -75 -406 -194 -634 -347 -84 -56 -74 -55 -277 -17
-103 20 -152 23 -345 23 -189 -1 -244 -4 -345 -23 -66 -12 -146 -27 -177 -32
l-57 -11 -73 59 c-216 175 -495 343 -660 398 -91 31 -101 31 -155 6z m224
-139 c169 -83 327 -181 470 -294 58 -45 121 -94 142 -109 l36 -28 93 25 c305
80 640 83 947 9 59 -14 112 -23 119 -21 7 3 52 34 102 69 197 142 467 289 642
352 115 41 144 35 188 -39 51 -88 122 -319 156 -505 21 -120 18 -456 -6 -555
-29 -126 -29 -136 -2 -246 38 -148 56 -282 56 -408 l0 -110 -47 -6 c-251 -34
-626 -118 -669 -149 -22 -17 -12 -46 16 -46 12 0 61 11 110 25 94 26 421 89
529 101 l63 7 -6 -39 c-3 -21 -8 -61 -12 -89 -11 -86 15 -80 -328 -76 -278 3
-306 1 -312 -14 -4 -9 -3 -20 2 -25 5 -4 138 -12 296 -17 159 -5 291 -13 295
-16 6 -7 -37 -126 -56 -156 -8 -13 -33 -9 -168 22 -156 36 -277 57 -328 57
-27 0 -44 -25 -29 -40 5 -5 70 -21 144 -35 111 -21 268 -60 328 -80 19 -7 -7
-52 -96 -169 -411 -536 -1314 -787 -2112 -586 -350 88 -604 223 -810 429 -109
110 -192 229 -167 242 17 9 260 65 377 86 95 18 112 29 92 61 -6 9 -51 4 -203
-23 -107 -20 -219 -42 -250 -50 -31 -8 -60 -15 -64 -15 -8 0 -65 125 -65 145
0 10 10 15 33 16 17 0 146 4 285 8 261 8 279 11 265 49 -5 12 -39 14 -237 8
-127 -3 -261 -9 -298 -12 l-67 -6 -6 39 c-4 21 -11 51 -16 67 -5 16 -12 67
-16 114 l-6 85 59 -7 c150 -18 350 -49 460 -72 67 -13 129 -24 138 -24 20 0
33 27 19 41 -20 20 -288 75 -528 109 -75 10 -140 21 -143 25 -3 3 2 60 12 126
20 149 70 305 147 467 l59 124 -19 56 c-49 144 -54 437 -12 662 33 172 116
401 173 471 17 20 49 38 68 39 8 0 79 -31 157 -69z m-1394 -2658 c18 -10 42
-38 55 -63 28 -55 30 -157 5 -268 -13 -57 -17 -123 -17 -252 0 -165 1 -180 28
-260 55 -166 129 -281 268 -416 98 -96 174 -152 275 -202 68 -35 65 -29 78
-177 8 -90 41 -276 60 -339 8 -27 13 -51 12 -53 -5 -5 -173 57 -277 102 -118
50 -281 145 -386 223 -134 99 -328 298 -406 417 -190 287 -251 632 -167 937
52 186 174 335 304 369 45 12 132 3 168 -18z m4221 -130 c122 -290 194 -561
227 -843 15 -133 12 -425 -5 -555 -60 -453 -289 -957 -556 -1225 -78 -78 -119
-103 -205 -126 -49 -14 -285 -38 -292 -30 -2 2 7 17 21 33 14 17 57 95 95 174
91 188 172 332 324 575 124 199 217 357 217 370 0 11 -189 -236 -253 -331
-104 -154 -255 -413 -332 -570 -54 -111 -85 -161 -117 -191 -37 -36 -95 -74
-112 -74 -3 0 -10 18 -16 40 -15 55 -30 50 -30 -10 l0 -50 -75 0 -74 0 3 37
c4 44 -1 63 -19 63 -7 0 -15 -18 -19 -41 -6 -36 -9 -39 -29 -33 -121 36 -161
140 -161 419 0 177 10 278 45 455 22 109 93 342 136 443 56 134 -14 53 -80
-93 -49 -107 -83 -213 -107 -331 -69 -339 -67 -707 6 -838 13 -24 24 -45 24
-47 0 -7 -366 -4 -399 2 -29 6 -30 8 -17 23 32 35 57 112 65 204 23 244 -58
694 -172 950 -44 102 -119 226 -124 210 -2 -6 26 -94 62 -195 206 -567 243
-1062 86 -1165 -38 -26 -71 -30 -71 -10 0 7 -7 22 -15 33 -13 16 -16 17 -25 4
-5 -8 -10 -32 -10 -52 l0 -38 -69 0 -70 0 -3 47 c-4 60 -25 69 -34 14 -8 -49
-23 -52 -71 -15 -62 47 -84 78 -153 214 -128 255 -292 510 -453 703 -130 156
-137 158 -37 7 163 -245 322 -512 430 -722 47 -92 95 -178 108 -192 12 -15 22
-29 22 -32 0 -11 -129 5 -220 27 -121 29 -305 121 -410 206 -426 344 -604 976
-479 1700 40 231 102 443 202 683 33 80 61 147 63 149 2 2 25 -16 51 -40 220
-203 480 -340 815 -428 279 -73 539 -96 804 -71 335 32 588 98 839 220 219
106 373 220 530 392 43 48 80 86 81 85 1 -1 27 -62 58 -134z"/>
<path d="M7204 14233 c-170 -150 -328 -296 -343 -316 -18 -25 0 -67 29 -67 28
0 470 402 470 427 0 16 -28 43 -45 43 -7 0 -57 -39 -111 -87z"/>
<path d="M4515 14230 c-9 -27 -6 -30 88 -101 100 -76 295 -238 321 -268 39
-44 113 -12 87 38 -21 38 -279 252 -389 322 -54 34 -98 38 -107 9z"/>
<path d="M4836 12875 c-79 -20 -155 -63 -162 -91 -13 -53 17 -55 126 -9 54 23
80 28 150 28 51 1 107 -6 142 -16 73 -22 190 -100 255 -171 53 -58 73 -64 94
-24 13 25 -13 68 -83 135 -105 99 -231 152 -373 159 -59 2 -110 -1 -149 -11z"/>
<path d="M6682 12840 c-105 -28 -198 -80 -275 -156 -67 -66 -78 -89 -55 -112
20 -20 36 -14 94 39 123 111 235 161 369 162 83 0 168 -19 237 -54 41 -21 63
-17 71 13 8 29 -28 61 -98 87 -122 46 -224 52 -343 21z"/>
<path d="M5765 12557 c-55 -15 -96 -34 -107 -51 -27 -40 18 -104 113 -162 l59
-37 0 -51 c0 -28 -5 -68 -11 -89 -13 -48 -70 -112 -123 -139 -94 -48 -231 -10
-283 79 -20 35 -30 43 -53 43 -36 0 -44 -12 -36 -55 9 -47 76 -118 138 -146
42 -19 70 -24 138 -24 108 0 171 26 234 96 l44 49 59 -59 c46 -46 72 -63 113
-75 183 -54 410 48 410 184 0 34 -17 45 -55 36 -15 -4 -27 -16 -31 -31 -9 -38
-81 -94 -143 -112 -154 -44 -292 59 -308 232 l-6 64 49 28 c64 37 133 101 140
128 9 38 -12 63 -69 80 -73 22 -211 28 -272 12z m222 -74 c7 -3 13 -8 13 -12
0 -15 -107 -81 -131 -81 -29 1 -122 66 -116 83 7 23 182 30 234 10z"/>
<path d="M10000 12863 c0 -241 -26 -448 -73 -572 -65 -177 -225 -341 -397
-407 -25 -9 -48 -20 -52 -23 -3 -3 8 -24 27 -45 l33 -39 65 30 c217 102 353
253 431 478 6 15 16 1 50 -70 84 -176 194 -288 361 -371 128 -63 143 -64 178
-13 16 23 27 42 25 44 -2 1 -28 10 -58 20 -185 59 -338 187 -422 352 -26 51
-56 124 -68 163 -19 64 -20 80 -11 165 6 52 11 162 11 245 l0 150 -50 0 -50 0
0 -107z"/>
<path d="M11580 12345 l0 -555 45 0 45 0 0 45 0 45 345 0 345 0 0 -45 0 -45
50 0 50 0 0 555 0 555 -440 0 -440 0 0 -555z m780 355 l0 -110 -345 0 -345 0
0 110 0 110 345 0 345 0 0 -110z m0 -310 l0 -110 -345 0 -345 0 0 110 0 110
345 0 345 0 0 -110z m0 -310 l0 -110 -345 0 -345 0 0 110 0 110 345 0 345 0 0
-110z"/>
<path d="M9651 12638 c-29 -94 -68 -180 -111 -243 l-31 -45 46 -22 46 -23 19
25 c38 50 81 141 115 245 19 58 35 108 35 110 0 2 -89 35 -94 35 -1 0 -12 -37
-25 -82z"/>
<path d="M10480 12695 c-29 -77 -77 -181 -120 -261 l-48 -92 41 -16 c22 -9 42
-15 43 -13 22 22 199 355 192 362 -2 2 -25 13 -51 24 l-48 21 -9 -25z"/>
<path d="M9998 10593 l-3 -548 -91 -3 -92 -3 18 -47 18 -47 84 0 c45 0 97 6
113 13 59 24 60 30 65 357 l5 300 24 -45 c85 -161 253 -357 378 -440 41 -28
78 -50 81 -50 4 1 21 19 38 42 l32 42 -55 32 c-114 69 -227 174 -324 302 l-26
34 144 145 c78 79 143 149 143 154 0 5 -18 21 -40 36 -35 22 -43 24 -54 12 -7
-8 -51 -59 -98 -114 -47 -55 -100 -113 -116 -129 l-31 -28 -50 101 -51 101 0
165 0 165 -55 0 -55 0 -2 -547z"/>
<path d="M11720 10490 l0 -520 50 0 50 0 0 55 0 55 385 0 385 0 0 -50 0 -50
55 0 55 0 0 515 0 515 -490 0 -490 0 0 -520z m870 55 l0 -365 -385 0 -385 0 0
365 0 365 385 0 385 0 0 -365z"/>
<path d="M9490 10760 l0 -50 160 0 c88 0 160 -4 160 -9 0 -23 -54 -169 -86
-234 -63 -124 -133 -213 -225 -287 l-47 -37 38 -37 38 -36 49 38 c147 117 279
354 338 611 9 35 14 65 13 66 -26 21 -69 25 -242 25 l-196 0 0 -50z"/>
<path d="M12150 9140 l0 -160 -255 0 -255 0 0 -50 0 -50 230 0 c127 0 230 -3
230 -6 0 -12 -93 -160 -138 -219 -88 -115 -296 -302 -365 -328 -7 -3 5 -22 29
-47 l41 -41 79 60 c130 97 264 247 360 403 l44 72 0 -337 0 -337 55 0 55 0 0
336 0 337 51 -79 c98 -150 250 -316 372 -408 l59 -43 39 41 c33 36 36 42 22
51 -143 89 -327 272 -433 432 l-71 108 235 3 236 2 0 50 0 50 -255 0 -255 0 0
160 0 160 -55 0 -55 0 0 -160z"/>
<path d="M9510 9110 l0 -50 200 0 201 0 -6 -77 c-19 -229 -65 -410 -136 -530
-46 -78 -160 -190 -241 -237 l-67 -38 31 -39 c17 -21 36 -39 43 -39 25 0 166
103 222 163 72 78 121 156 164 262 38 96 75 271 84 397 3 51 8 103 11 116 l4
22 230 0 230 0 0 -52 c0 -92 -20 -439 -30 -538 -15 -143 -29 -197 -58 -232
l-26 -31 -124 6 c-113 5 -123 4 -117 -11 3 -9 9 -29 12 -44 9 -46 23 -50 150
-47 238 8 256 51 282 644 6 132 13 277 15 323 l4 82 -539 0 -539 0 0 -50z"/>
<path d="M10000 7250 l0 -210 -225 0 -225 0 0 -50 0 -50 225 0 225 0 0 -265 0
-265 -265 0 -265 0 0 -45 0 -45 585 0 585 0 0 45 0 45 -270 0 -270 0 0 265 0
265 228 2 227 3 3 48 3 47 -230 0 -231 0 0 210 0 210 -50 0 -50 0 0 -210z"/>
<path d="M11805 7393 c-43 -162 -111 -323 -183 -431 -19 -29 -33 -55 -30 -57
2 -2 21 -16 42 -30 31 -21 41 -24 48 -13 31 46 91 154 108 192 17 40 23 46 50
46 l30 0 0 -420 0 -420 50 0 50 0 0 420 0 420 115 0 115 0 0 50 0 50 -176 0
c-163 0 -176 1 -170 17 20 50 69 223 65 227 -2 2 -25 7 -50 11 l-46 7 -18 -69z"/>
<path d="M12325 7448 c-2 -7 -17 -61 -34 -120 -39 -134 -96 -269 -151 -354
-24 -35 -41 -66 -39 -67 2 -2 21 -15 41 -30 l38 -28 40 63 c21 34 52 91 67
125 l28 62 98 1 97 0 -2 -367 -3 -368 -99 -3 c-96 -3 -98 -3 -92 -25 4 -12 9
-35 13 -51 l6 -29 97 6 c108 6 155 23 170 63 6 15 10 185 10 400 l0 374 100 0
100 0 0 50 0 50 -225 0 c-124 0 -225 3 -225 8 0 4 14 54 30 111 17 57 30 109
30 116 0 22 -88 33 -95 13z"/>
<path d="M9998 5617 c-21 -6 -38 -14 -38 -18 0 -4 11 -31 25 -61 14 -29 25
-59 25 -65 0 -10 -58 -13 -255 -13 l-255 0 0 -145 0 -145 45 0 45 0 0 100 0
100 460 0 460 0 0 -85 0 -85 50 0 50 0 0 130 0 130 -235 0 -235 0 -42 85 c-23
47 -47 84 -53 84 -5 -1 -27 -6 -47 -12z"/>
<path d="M12043 5547 c-77 -95 -218 -233 -270 -263 l-41 -25 15 -45 16 -46 51
6 c82 10 281 25 284 21 11 -11 -298 -195 -363 -216 -22 -7 -41 -14 -42 -14 -2
-1 4 -23 13 -49 l17 -48 41 6 c32 6 366 35 399 36 4 0 6 -87 5 -192 l-3 -193
-91 -3 -92 -3 18 -47 18 -47 82 3 c45 2 99 9 119 15 53 18 60 47 60 278 l1
196 93 7 c50 3 128 9 173 12 l81 6 21 -33 c48 -74 45 -73 91 -49 23 11 41 25
41 30 0 13 -82 113 -164 200 -99 104 -99 104 -138 84 -18 -9 -35 -18 -37 -21
-3 -2 22 -30 54 -63 32 -33 57 -61 54 -64 -4 -4 -592 -44 -597 -40 -2 1 29 21
70 45 155 90 488 329 512 368 4 5 -13 23 -36 39 l-43 30 -35 -30 c-19 -17 -67
-56 -107 -88 -80 -64 -75 -63 -298 -75 l-110 -6 78 71 c78 73 207 214 207 228
0 5 -20 18 -44 30 l-45 21 -58 -72z"/>
<path d="M9836 5244 c-74 -56 -182 -120 -261 -153 -33 -14 -62 -26 -64 -27 -1
-2 10 -20 25 -41 16 -21 29 -40 31 -42 4 -6 171 86 243 134 36 24 87 62 111
84 l44 40 -30 25 c-16 14 -32 25 -35 25 -3 0 -31 -20 -64 -45z"/>
<path d="M10165 5260 c-16 -16 -27 -31 -24 -33 2 -2 51 -30 109 -62 58 -32
146 -84 197 -115 l91 -58 31 39 31 38 -82 49 c-87 51 -311 172 -320 172 -2 0
-17 -13 -33 -30z"/>
<path d="M9632 4928 l3 -43 183 -3 182 -2 0 -165 0 -165 -250 0 -250 0 0 -45
0 -45 555 0 555 0 0 45 0 45 -255 0 -255 0 0 165 0 165 188 2 187 3 3 43 3 42
-426 0 -426 0 3 -42z"/>
<path d="M11849 4748 c-30 -39 -90 -102 -134 -141 -44 -38 -84 -73 -88 -77 -7
-6 64 -60 79 -60 23 0 284 282 284 307 0 5 -19 16 -43 25 l-43 16 -55 -70z"/>
<path d="M12438 4796 c-21 -12 -38 -23 -37 -26 0 -3 45 -45 100 -93 54 -49
120 -115 146 -147 27 -33 51 -59 56 -59 14 -1 77 44 77 55 0 13 -232 240 -276
271 -29 19 -29 19 -66 -1z"/>
<path d="M12435 3708 c-3 -7 -4 -263 -3 -568 l3 -555 48 -3 47 -3 0 570 0 571
-45 0 c-27 0 -48 -5 -50 -12z"/>
<path d="M9667 3408 c-4 -231 -9 -321 -22 -377 -33 -149 -89 -262 -169 -344
l-37 -37 38 -36 38 -36 45 50 c66 74 111 154 147 261 l32 96 316 3 315 2 0
-145 c0 -178 8 -170 -162 -163 -65 3 -118 2 -118 -1 0 -3 8 -25 18 -49 l17
-43 135 3 c148 3 181 14 200 64 6 15 10 237 10 540 l0 514 -399 0 -399 0 -5
-302z m703 102 l0 -110 -300 0 -300 0 0 110 0 110 300 0 300 0 0 -110z m0
-315 l0 -115 -307 2 -308 3 2 25 c1 14 5 64 8 113 l7 87 299 0 299 0 0 -115z"/>
<path d="M11580 3463 c0 -281 -12 -449 -40 -557 -20 -79 -67 -180 -108 -234
l-25 -32 39 -35 39 -34 23 27 c38 46 82 127 108 204 42 123 54 238 61 586 l6
322 -51 0 -52 0 0 -247z"/>
<path d="M11992 3178 l3 -483 48 -3 47 -3 0 485 0 486 -50 0 -50 0 2 -482z"/>
<path d="M8338 1644 c-34 -18 -58 -62 -58 -104 0 -45 44 -85 116 -105 97 -27
114 -36 121 -63 14 -58 -93 -86 -142 -37 -14 13 -25 29 -25 35 0 5 -18 10 -40
10 -46 0 -51 -14 -23 -60 40 -69 177 -99 250 -55 66 39 80 131 27 180 -14 13
-55 31 -92 40 -86 23 -112 39 -112 70 0 56 118 59 135 3 9 -26 85 -26 85 1 0
27 -39 71 -76 87 -43 18 -132 17 -166 -2z"/>
<path d="M8740 1642 c-55 -30 -91 -89 -97 -158 -13 -146 61 -237 192 -237 122
0 195 79 195 210 0 73 -26 132 -75 169 -32 24 -49 29 -109 32 -55 2 -79 -1
-106 -16z m172 -81 c28 -25 32 -35 36 -93 5 -76 -13 -120 -58 -143 -37 -19
-64 -19 -105 1 -81 38 -89 195 -13 248 38 27 103 21 140 -13z"/>
<path d="M9090 1503 c0 -173 8 -202 66 -239 38 -25 148 -25 190 0 61 36 68 63
69 236 l0 155 -37 3 -38 3 0 -143 c0 -95 -5 -151 -13 -168 -17 -33 -74 -48
-116 -30 -42 17 -51 55 -51 213 l0 127 -35 0 -35 0 0 -157z"/>
<path d="M9487 1653 c-4 -3 -7 -96 -7 -205 l0 -198 40 0 40 0 0 81 0 80 47 -3
47 -3 31 -77 30 -78 41 0 42 0 -36 85 -35 85 21 23 c64 69 50 170 -29 201 -40
16 -218 23 -232 9z m201 -79 c12 -8 22 -26 22 -39 0 -40 -25 -55 -91 -55 l-59
0 0 55 0 55 53 0 c31 0 61 -6 75 -16z"/>
<path d="M9945 1646 c-65 -29 -105 -101 -105 -189 0 -133 71 -210 195 -211 69
-1 126 27 150 74 25 48 20 60 -24 60 -31 0 -41 -4 -46 -20 -7 -23 -53 -50 -85
-50 -34 0 -78 28 -95 60 -22 42 -20 137 5 177 35 58 140 63 170 8 11 -20 21
-25 52 -25 31 0 38 4 38 19 0 25 -44 77 -81 96 -35 19 -134 19 -174 1z"/>
<path d="M10260 1455 l0 -205 135 0 135 0 0 35 0 35 -95 0 -95 0 0 50 0 50 85
0 85 0 0 35 0 35 -85 0 -85 0 0 50 0 50 95 0 95 0 0 35 0 35 -135 0 -135 0 0
-205z"/>
<path d="M10590 1454 l0 -206 119 4 c103 3 124 6 148 24 58 43 62 131 7 169
l-29 20 23 22 c26 26 30 96 7 130 -19 28 -86 43 -189 43 l-86 0 0 -206z m198
120 c12 -8 22 -24 22 -34 0 -34 -28 -50 -86 -50 l-54 0 0 50 0 50 48 0 c27 0
57 -7 70 -16z m27 -164 c20 -16 19 -49 -2 -72 -12 -14 -31 -18 -80 -18 l-63 0
0 56 0 57 65 -5 c36 -3 72 -11 80 -18z"/>
<path d="M11050 1642 c-55 -30 -91 -89 -97 -158 -13 -146 61 -237 192 -237
122 0 195 79 195 210 0 73 -26 132 -75 169 -32 24 -49 29 -109 32 -55 2 -79
-1 -106 -16z m172 -81 c28 -25 32 -35 36 -93 5 -76 -13 -120 -58 -143 -37 -19
-64 -19 -105 1 -81 38 -89 195 -13 248 38 27 103 21 140 -13z"/>
<path d="M11495 1646 c-65 -29 -105 -101 -105 -189 0 -93 35 -157 105 -195 40
-21 141 -20 181 1 137 72 140 308 4 377 -46 23 -139 26 -185 6z m154 -72 c30
-21 51 -73 51 -124 0 -102 -88 -167 -168 -126 -47 24 -65 67 -60 142 3 54 9
68 33 94 24 25 37 30 75 30 26 0 56 -7 69 -16z"/>
<path d="M11840 1456 l0 -206 40 0 40 0 0 92 0 91 71 -91 c71 -91 72 -92 115
-92 24 0 44 2 44 5 0 3 -36 50 -80 106 l-80 100 68 82 c106 129 101 117 49
117 -45 0 -46 -1 -114 -86 l-68 -86 -5 83 -5 84 -37 3 -38 3 0 -205z"/>
<path d="M12442 1633 c-29 -79 -132 -375 -132 -379 0 -2 17 -4 38 -4 37 0 40
2 51 40 l12 41 81 -3 81 -3 12 -35 c10 -31 16 -35 52 -38 l41 -3 -72 203 -72
203 -41 3 c-37 3 -42 0 -51 -25z m55 -231 c-27 -2 -51 -1 -54 2 -5 4 33 129
45 150 3 6 18 -26 32 -70 l27 -79 -50 -3z"/>
<path d="M12720 1456 l0 -206 35 0 35 0 0 80 0 80 48 0 47 0 29 -76 c16 -42
35 -78 42 -81 7 -2 26 -3 42 -1 l30 3 -35 84 -34 83 26 28 c32 33 43 96 25
139 -22 53 -53 65 -177 69 l-113 4 0 -206z m204 118 c23 -22 20 -71 -3 -84
-11 -5 -45 -10 -75 -10 l-56 0 0 55 0 55 59 0 c41 0 65 -5 75 -16z"/>
</g>
</svg>
