<?xml version="1.0" standalone="no"?>
<!DOCTYPE svg PUBLIC "-//W3C//DTD SVG 20010904//EN"
 "http://www.w3.org/TR/2001/REC-SVG-20010904/DTD/svg10.dtd">
<svg version="1.0" xmlns="http://www.w3.org/2000/svg"
 width="1587.000000pt" height="2245.000000pt" viewBox="0 0 1587.000000 2245.000000"
 preserveAspectRatio="xMidYMid meet">

<g transform="translate(0.000000,2245.000000) scale(0.100000,-0.100000)"
fill="#000000" stroke="none">
<path d="M0 11225 l0 -11225 7935 0 7935 0 0 11225 0 11225 -7935 0 -7935 0 0
-11225z m8960 5940 l0 -735 3350 0 3350 0 0 -1095 0 -1095 -1345 0 -1345 0 0
275 0 275 -5970 0 -5970 0 -2 818 c-2 449 -2 1149 0 1555 l2 737 3965 0 3965
0 0 -735z"/>
<path d="M8383 17742 l-123 -15 0 -32 c0 -32 1 -32 57 -39 112 -13 103 1 103
-153 l0 -135 -22 6 c-13 4 -57 9 -98 13 -270 21 -480 -190 -480 -482 1 -196
75 -340 210 -404 48 -22 67 -26 145 -25 96 2 153 17 216 59 l37 24 6 -34 c9
-47 35 -59 115 -52 91 8 121 20 121 51 0 23 -4 25 -52 28 l-53 3 -3 594 c-2
461 -5 597 -15 603 -14 9 -8 9 -164 -10z m-13 -454 l45 -23 3 -318 2 -318 -56
-26 c-67 -31 -165 -41 -219 -23 -56 19 -118 81 -151 153 -28 59 -29 69 -29
202 0 138 0 141 33 207 56 114 137 166 262 167 49 1 77 -5 110 -21z"/>
<path d="M1408 17703 l-138 -4 0 -39 0 -40 43 0 c23 0 52 -3 65 -6 l22 -6 0
-518 0 -517 -72 -9 c-73 -9 -73 -9 -76 -41 l-3 -33 251 0 251 0 -3 33 -3 32
-90 8 c-49 4 -96 9 -102 12 -10 3 -13 50 -13 190 0 102 1 185 3 186 1 0 67 4
147 8 113 6 158 13 202 30 80 31 146 79 190 137 54 70 73 132 73 234 -1 155
-51 250 -156 302 -101 49 -133 51 -591 41z m430 -88 c111 -33 163 -111 170
-251 8 -162 -39 -255 -151 -305 -41 -18 -75 -24 -159 -27 -60 -2 -119 -1 -133
2 l-25 6 0 289 c0 267 1 290 18 294 44 12 231 6 280 -8z"/>
<path d="M3447 17379 c-53 -13 -128 -52 -159 -86 -58 -61 -74 -153 -39 -229
27 -60 90 -107 251 -189 80 -40 155 -84 168 -98 13 -14 26 -43 29 -65 12 -87
-56 -150 -171 -159 -117 -10 -200 31 -225 110 -13 44 -17 47 -48 47 l-33 0 0
-86 0 -85 53 -24 c78 -36 210 -52 299 -37 172 30 258 115 258 256 0 109 -48
158 -253 259 -167 83 -206 114 -213 173 -11 88 61 149 176 149 94 0 139 -26
164 -93 16 -46 22 -52 47 -52 l29 0 0 83 c0 81 -1 84 -26 96 -79 36 -223 50
-307 30z"/>
<path d="M4267 17379 c-53 -13 -128 -52 -159 -86 -58 -61 -74 -153 -39 -229
27 -60 90 -107 251 -189 80 -40 155 -84 168 -98 13 -14 26 -43 29 -65 12 -87
-56 -150 -171 -159 -117 -10 -200 31 -225 110 -13 44 -17 47 -48 47 l-33 0 0
-86 0 -85 53 -24 c78 -36 210 -52 299 -37 172 30 258 115 258 256 0 109 -48
158 -253 259 -167 83 -206 114 -213 173 -11 88 61 149 176 149 94 0 139 -26
164 -93 16 -46 22 -52 47 -52 l29 0 0 83 c0 81 -1 84 -26 96 -79 36 -223 50
-307 30z"/>
<path d="M6450 17377 c-219 -63 -344 -273 -311 -522 25 -182 95 -292 224 -351
54 -24 74 -28 157 -28 129 0 193 25 276 108 69 70 108 142 129 241 19 90 19
148 -1 242 -41 201 -160 310 -348 319 -48 2 -99 -1 -126 -9z m191 -90 c85 -45
135 -151 146 -312 17 -260 -77 -425 -242 -425 -125 0 -214 95 -251 269 -45
212 17 423 141 477 51 22 155 18 206 -9z"/>
<path d="M2515 17364 c-79 -18 -159 -49 -176 -70 -9 -11 -9 -21 0 -43 l12 -28
62 26 c54 22 77 25 172 26 93 0 115 -3 143 -20 46 -27 71 -81 78 -168 l7 -74
-73 -7 c-284 -26 -450 -135 -450 -295 0 -102 73 -197 174 -226 101 -29 232 -5
309 56 39 31 39 31 51 -24 8 -35 46 -51 106 -42 82 11 110 24 110 50 0 21 -5
24 -47 27 l-48 3 0 305 c-1 339 -5 367 -61 429 -70 78 -220 108 -369 75z m293
-530 c1 -54 -1 -124 -5 -154 -8 -54 -9 -56 -63 -85 -46 -24 -67 -29 -125 -29
-79 0 -122 18 -159 67 -29 40 -30 150 -1 189 24 32 93 72 155 88 46 12 167 29
185 25 6 -1 11 -45 13 -101z"/>
<path d="M7290 17370 c-14 -5 -58 -18 -97 -30 -63 -18 -73 -24 -73 -43 0 -18
13 -29 55 -50 l55 -27 0 -324 c0 -354 3 -336 -58 -336 -54 0 -72 -11 -72 -41
l0 -29 250 0 250 0 0 29 c0 24 -5 29 -31 35 -17 3 -48 6 -69 6 -20 0 -58 3
-84 6 l-46 7 0 309 0 309 58 27 c47 22 71 27 142 27 47 0 98 -4 113 -9 l28 -8
-3 73 -3 74 -51 3 c-82 5 -213 -47 -274 -108 -20 -20 -20 -20 -20 35 0 43 -4
56 -19 65 -11 5 -21 10 -23 9 -2 0 -14 -4 -28 -9z"/>
<path d="M4730 17325 c0 -36 4 -38 65 -47 17 -3 40 -64 153 -406 l133 -403 61
3 61 3 88 330 c49 182 92 344 97 360 8 28 9 25 21 -35 9 -49 122 -456 177
-642 4 -15 17 -18 69 -18 63 0 64 0 74 33 5 17 58 196 116 397 59 201 108 366
109 368 2 1 23 6 47 10 42 7 44 9 47 45 l3 37 -155 0 -156 0 0 -34 c0 -37 12
-46 60 -46 16 0 31 -4 34 -8 7 -11 -152 -634 -165 -646 -6 -6 -9 -4 -9 5 0 8
-43 173 -95 367 -52 195 -95 355 -95 358 0 2 -29 4 -65 4 -36 0 -65 -3 -65 -6
0 -3 -36 -142 -79 -307 -43 -166 -85 -331 -93 -367 l-15 -65 -12 45 c-6 25
-50 171 -97 324 -91 297 -90 296 -32 296 46 0 58 10 58 46 l0 34 -170 0 -170
0 0 -35z"/>
<path d="M1172 15613 l3 -668 7168 -3 7167 -2 0 670 0 670 -7170 0 -7170 0 2
-667z m12125 397 c-4 -44 -4 -80 -1 -80 3 0 33 23 67 50 l62 50 17 -22 c10
-13 18 -27 18 -31 0 -4 -36 -25 -80 -46 l-79 -39 62 -30 c34 -17 71 -38 82
-46 20 -15 20 -15 -2 -37 l-21 -22 -66 53 -66 52 6 -86 7 -86 -33 0 -33 0 6
85 6 85 -64 -51 c-65 -51 -77 -53 -95 -19 -9 17 -1 24 68 61 l78 43 -78 38
c-43 20 -78 41 -78 45 0 4 8 18 18 31 l17 22 62 -50 c34 -27 64 -50 67 -50 3
0 3 36 -1 80 l-6 80 33 0 33 0 -6 -80z m-2676 20 c29 -16 25 -65 -6 -86 -23
-15 -27 -15 -50 0 -43 29 -25 81 33 95 2 1 12 -4 23 -9z m1549 -213 l5 -207
90 90 c89 90 89 90 57 90 -25 0 -32 4 -32 20 0 19 7 20 96 20 86 0 95 -2 92
-17 -2 -12 -14 -19 -34 -21 -22 -2 -48 -21 -98 -71 l-67 -68 83 -111 c61 -81
90 -111 108 -114 14 -2 26 -11 28 -20 3 -16 -7 -18 -93 -18 -86 0 -96 2 -93
18 2 9 13 18 26 20 12 2 22 6 22 9 0 10 -121 173 -129 173 -4 0 -19 -13 -34
-28 -23 -24 -27 -37 -27 -89 0 -59 1 -61 30 -66 18 -4 30 -13 30 -22 0 -12
-17 -15 -96 -15 -86 0 -95 2 -92 18 2 10 14 18 31 20 l27 3 0 270 0 269 -22 0
c-65 1 -61 47 4 53 91 8 82 28 88 -206z m-7781 163 c22 -11 47 -33 56 -50 32
-61 8 -156 -47 -190 l-28 -17 46 -24 c80 -41 106 -127 64 -209 -44 -87 -134
-114 -337 -104 -106 6 -123 9 -121 23 2 9 17 18 33 21 l30 5 0 260 0 260 -32
3 c-25 2 -33 8 -33 22 0 17 10 20 83 23 148 7 242 0 286 -23z m1883 8 c62 -18
132 -91 152 -159 21 -69 20 -181 -2 -241 -30 -82 -73 -132 -144 -166 -69 -34
-95 -37 -276 -34 -102 2 -113 4 -110 20 2 11 14 18 36 20 l32 3 0 265 0 264
-35 0 c-28 0 -35 4 -35 20 0 18 9 20 103 23 139 5 227 1 279 -15z m1618 -43
c0 -48 -3 -55 -19 -55 -13 0 -21 9 -26 29 -5 26 -11 29 -58 35 -29 3 -82 6
-119 6 l-68 0 0 -120 0 -120 38 0 c20 0 60 3 88 6 44 6 52 10 62 36 20 54 37
29 40 -60 3 -81 3 -82 -22 -82 -19 0 -25 6 -28 28 -3 27 -3 27 -91 30 l-88 3
3 -123 3 -123 58 -3 c49 -3 57 -6 57 -22 0 -19 -8 -20 -131 -20 -119 0 -130 2
-127 18 2 11 14 18 36 20 l32 3 0 265 0 264 -35 0 c-28 0 -35 4 -35 20 0 19 7
20 215 20 l215 0 0 -55z m1650 35 c0 -16 -7 -20 -30 -20 l-30 0 0 -125 0 -125
155 0 156 0 -3 123 -3 122 -32 3 c-25 2 -33 8 -33 23 0 17 8 19 100 19 93 0
100 -1 100 -20 0 -16 -7 -20 -30 -20 l-30 0 0 -264 0 -265 32 -3 c22 -2 34 -9
36 -20 3 -16 -7 -18 -103 -18 -96 0 -106 2 -103 17 2 11 15 20 33 23 l30 5 3
113 3 112 -156 0 -155 0 0 -114 0 -115 32 -3 c22 -2 34 -9 36 -20 3 -16 -7
-18 -103 -18 -96 0 -106 2 -103 18 2 10 14 18 31 20 l27 3 0 265 0 264 -30 0
c-23 0 -30 4 -30 20 0 19 7 20 100 20 93 0 100 -1 100 -20z m1520 4 c83 -34
107 -120 57 -206 -14 -25 -38 -53 -52 -62 l-26 -17 54 -39 c62 -44 82 -83 74
-140 -11 -85 -87 -140 -193 -140 -159 1 -245 124 -168 243 13 20 28 37 32 37
4 1 18 10 31 20 l23 20 -41 45 c-37 40 -41 49 -41 97 0 68 27 113 83 138 52
24 114 25 167 4z m400 -4 c0 -15 -7 -20 -29 -20 l-29 0 -4 -277 c-3 -194 -8
-287 -17 -308 -26 -64 -126 -140 -173 -133 -24 3 -37 28 -15 28 8 0 32 13 54
29 69 50 73 72 73 386 l0 275 -30 0 c-23 0 -30 4 -30 20 0 19 7 20 100 20 93
0 100 -1 100 -20z m-2257 -3 c3 -9 -16 -23 -56 -42 -73 -33 -153 -110 -187
-180 -33 -67 -34 -187 -3 -257 38 -84 127 -102 188 -38 50 52 48 184 -2 235
-28 27 -42 28 -128 13 -34 -5 -23 25 15 44 111 56 223 -21 223 -153 0 -202
-238 -297 -352 -139 -116 160 -4 424 217 511 57 22 78 23 85 6z m-5809 -323
l-7 -224 41 0 c50 0 72 -8 72 -26 0 -11 -28 -14 -146 -14 -133 0 -145 1 -142
18 2 13 15 18 56 20 l52 3 0 184 0 184 -32 -10 c-48 -13 -78 -11 -78 6 0 17
158 94 178 87 11 -4 12 -48 6 -228z m1456 214 c81 -41 99 -122 49 -220 -21
-42 -120 -148 -174 -186 l-30 -21 40 -1 c22 0 71 3 108 7 61 5 69 9 84 34 18
31 22 33 39 21 9 -5 9 -21 1 -59 l-11 -53 -183 0 c-168 0 -183 1 -183 18 0 9
20 30 46 46 67 42 172 150 194 199 11 23 20 59 20 79 0 46 -39 95 -83 103 -35
7 -110 -16 -138 -41 -19 -17 -39 -11 -39 11 0 15 56 52 109 71 54 19 101 17
151 -8z m844 8 c98 -41 103 -158 9 -235 -33 -27 -35 -31 -17 -37 57 -18 76
-29 94 -51 43 -55 33 -138 -27 -204 -53 -59 -104 -81 -195 -87 -77 -4 -78 -4
-78 19 0 22 4 24 59 25 104 3 179 61 188 145 9 88 -61 142 -156 120 -40 -9
-41 -8 -41 18 0 23 6 28 44 39 49 13 103 54 116 88 14 36 -7 92 -40 109 -41
21 -79 19 -134 -9 -45 -23 -47 -23 -56 -5 -8 15 -5 22 15 35 65 43 158 56 219
30z m1105 -3 c20 -18 20 -19 -103 -228 -68 -115 -123 -210 -122 -210 0 -1 47
1 104 3 l102 4 0 94 c0 92 1 95 26 104 14 6 30 10 35 10 5 0 9 -45 9 -100 l0
-100 40 0 c38 0 40 -2 40 -30 0 -28 -2 -30 -40 -30 l-40 0 0 -75 0 -75 -35 0
-35 0 0 75 0 75 -134 0 c-120 0 -134 2 -138 18 -3 10 19 59 49 112 30 52 85
157 123 233 39 76 76 137 84 137 8 0 23 -8 35 -17z m1451 -9 c0 -8 -5 -24 -10
-35 -9 -17 -22 -19 -104 -19 l-94 0 -11 -63 c-17 -100 -22 -94 67 -89 68 3 81
1 111 -20 81 -54 100 -157 45 -244 -53 -86 -169 -151 -256 -142 -40 4 -54 38
-16 38 14 0 48 7 76 15 133 40 194 187 114 276 -32 36 -94 48 -157 30 -23 -6
-43 -7 -48 -2 -5 5 -4 54 2 118 19 171 0 153 151 153 111 0 130 -2 130 -16z
m2154 7 c3 -4 -43 -140 -102 -302 l-108 -294 -29 2 c-15 1 -32 6 -37 11 -6 6
10 52 38 113 59 130 174 408 174 420 0 10 -171 12 -218 3 -24 -5 -34 -14 -42
-40 -8 -23 -18 -34 -31 -34 -21 0 -24 23 -13 93 l7 37 178 0 c98 0 180 -4 183
-9z m1437 -14 c184 -124 92 -481 -153 -597 -72 -34 -84 -36 -92 -15 -4 11 11
23 52 44 124 62 203 186 210 329 8 148 -33 222 -122 222 -77 0 -118 -52 -117
-152 0 -69 22 -116 65 -136 23 -12 34 -12 72 1 24 8 44 13 44 11 0 -1 3 -9 6
-18 5 -12 -6 -21 -37 -36 -56 -25 -83 -25 -134 0 -130 63 -110 293 30 356 50
22 137 18 176 -9z m1012 9 c73 -31 110 -104 111 -221 1 -161 -84 -265 -216
-265 -125 1 -198 93 -198 249 0 116 39 188 122 230 50 25 132 28 181 7z
m-4210 -31 c28 -9 47 -11 67 -3 16 5 41 8 57 6 22 -2 29 -9 31 -30 3 -27 1
-28 -38 -28 -39 0 -40 -1 -33 -27 23 -81 -7 -155 -77 -191 -38 -20 -56 -23
-112 -19 l-68 4 0 -31 c0 -55 9 -60 128 -66 118 -6 155 -20 172 -66 26 -68 -4
-141 -73 -177 -85 -44 -252 -27 -296 29 -33 42 -22 116 23 153 14 11 13 16 -6
41 -21 28 -21 30 -4 74 10 25 22 48 27 52 5 3 -4 21 -21 40 -25 29 -30 43 -30
85 0 27 7 63 15 79 37 72 149 107 238 75z m-4797 -19 c53 -36 59 -58 60 -231
1 -155 2 -160 23 -163 33 -5 25 -30 -13 -37 -49 -10 -71 -3 -74 22 l-3 23 -30
-22 c-19 -15 -48 -23 -86 -25 -69 -5 -114 18 -139 71 -44 92 39 177 188 193
58 6 58 6 58 39 0 91 -67 125 -176 88 -39 -13 -48 -13 -55 -2 -32 51 178 88
247 44z m1518 14 c23 -8 26 -15 26 -55 0 -38 -3 -45 -20 -45 -11 0 -26 12 -35
30 -31 60 -133 44 -182 -29 -18 -27 -23 -48 -23 -103 0 -81 16 -124 59 -161
41 -34 83 -41 148 -24 45 12 53 12 58 0 8 -23 -2 -32 -62 -49 -160 -47 -275
39 -275 204 0 110 43 184 127 223 44 20 137 25 179 9z m1957 -17 c41 -35 59
-79 59 -148 l0 -55 -151 0 -152 0 6 -34 c17 -104 83 -155 181 -141 85 12 101
11 101 -5 0 -38 -172 -64 -238 -36 -123 51 -158 257 -64 372 40 48 98 74 169
74 47 0 62 -5 89 -27z m3317 -180 l2 -201 30 -6 c18 -3 30 -12 30 -21 0 -12
-17 -15 -100 -15 -79 0 -100 3 -100 14 0 15 21 26 51 26 18 0 19 9 19 164 l0
164 -30 12 c-42 17 -37 37 13 50 23 6 47 13 52 15 27 9 30 -10 33 -202z"/>
<path d="M4160 15845 l0 -118 78 5 c88 5 125 23 141 70 18 52 13 85 -18 120
-28 32 -33 33 -115 37 l-86 3 0 -117z"/>
<path d="M4173 15683 c-10 -3 -13 -38 -13 -123 0 -136 -4 -130 97 -130 118 0
170 46 160 143 -6 71 -35 96 -123 107 -76 10 -103 11 -121 3z"/>
<path d="M6030 15700 l0 -260 25 -6 c42 -11 148 1 188 20 77 38 116 118 117
240 0 95 -13 143 -53 192 -45 54 -96 74 -194 74 l-83 0 0 -260z"/>
<path d="M10899 15931 c-43 -43 -41 -98 5 -143 19 -18 48 -41 66 -51 l31 -19
39 40 c34 34 40 46 40 81 0 48 -21 96 -49 111 -11 5 -38 10 -61 10 -33 0 -48
-6 -71 -29z"/>
<path d="M10884 15636 c-33 -33 -39 -51 -34 -106 7 -86 117 -138 200 -95 60
31 70 109 20 155 -36 33 -116 80 -137 80 -8 0 -30 -15 -49 -34z"/>
<path d="M12681 15815 c-39 -33 -55 -83 -55 -170 1 -139 51 -225 132 -225 75
0 120 58 129 168 8 97 -11 178 -52 219 -43 43 -107 47 -154 8z"/>
<path d="M8512 15795 c-39 -17 -55 -55 -49 -114 7 -64 43 -96 108 -96 68 0 89
25 89 104 0 69 -17 96 -68 111 -45 12 -40 12 -80 -5z"/>
<path d="M8468 15383 c-5 -7 -12 -30 -15 -52 -5 -35 -2 -44 25 -71 31 -31 55
-36 137 -31 74 5 105 32 105 90 0 50 -30 65 -142 71 -71 4 -103 2 -110 -7z"/>
<path d="M3730 15598 c-52 -15 -80 -45 -80 -87 0 -42 7 -54 37 -70 30 -15 78
-14 113 4 29 15 30 18 30 90 l0 75 -32 -1 c-18 0 -49 -5 -68 -11z"/>
<path d="M7149 15785 c-26 -14 -51 -56 -63 -107 l-6 -28 110 0 110 0 0 40 c0
46 -21 95 -45 104 -28 10 -79 6 -106 -9z"/>
<path d="M13212 14634 c-22 -15 -29 -48 -13 -72 4 -7 30 -27 57 -45 57 -38 70
-72 31 -86 -33 -13 -65 -4 -72 20 -10 29 -27 23 -23 -8 3 -27 5 -28 62 -28 52
0 61 3 79 27 17 23 19 32 9 52 -6 14 -26 33 -44 42 -49 24 -68 44 -68 70 0 35
47 45 71 16 22 -28 29 -28 29 3 0 23 -3 25 -48 25 -27 0 -57 -7 -70 -16z"/>
<path d="M13414 14616 c-31 -31 -34 -40 -34 -91 0 -49 4 -60 29 -86 24 -23 38
-29 73 -29 72 1 108 43 108 130 0 44 -5 56 -29 81 -43 43 -101 41 -147 -5z
m121 -17 c19 -36 19 -119 0 -146 -24 -34 -54 -36 -86 -3 -24 23 -29 37 -29 75
0 25 7 59 15 75 24 47 76 47 100 -1z"/>
<path d="M13623 14636 c14 -11 17 -29 17 -95 0 -74 2 -84 25 -106 34 -35 102
-35 135 0 20 21 24 38 28 110 3 47 8 85 13 85 5 0 9 5 9 10 0 6 -18 10 -40 10
-22 0 -40 -4 -40 -10 0 -5 7 -10 15 -10 12 0 15 -15 15 -78 0 -91 -15 -122
-60 -122 -49 0 -60 21 -60 116 0 49 4 84 10 84 6 0 10 5 10 10 0 6 -21 10 -47
10 -42 -1 -46 -2 -30 -14z"/>
<path d="M13870 14640 c0 -5 7 -10 15 -10 12 0 15 -18 15 -100 0 -82 -3 -100
-15 -100 -8 0 -15 -4 -15 -10 0 -5 24 -10 53 -9 50 0 51 1 30 16 -16 11 -23
26 -23 49 0 29 3 34 24 34 18 0 29 -11 48 -47 18 -37 30 -49 51 -51 15 -2 27
1 27 7 0 6 -4 11 -9 11 -5 0 -21 20 -35 45 l-27 44 21 21 c25 25 26 72 2 93
-14 13 -38 17 -90 17 -41 0 -72 -4 -72 -10z m114 -10 c21 -8 26 -16 26 -45 0
-28 -5 -38 -24 -47 -40 -18 -56 -4 -56 46 0 26 5 46 13 49 6 3 13 6 14 6 1 1
13 -3 27 -9z"/>
<path d="M14158 14634 c-37 -20 -58 -63 -58 -119 0 -38 5 -52 29 -76 25 -24
38 -29 79 -29 66 0 82 7 82 36 0 29 -16 32 -25 4 -5 -15 -15 -20 -45 -20 -52
0 -80 35 -80 100 0 62 28 100 75 100 23 0 37 -7 48 -22 14 -21 16 -21 22 -5 4
9 5 24 1 32 -7 20 -91 19 -128 -1z"/>
<path d="M14333 14636 c14 -11 17 -29 17 -106 0 -77 -3 -95 -17 -106 -15 -11
-5 -13 73 -14 92 0 104 5 104 41 0 15 -27 10 -34 -6 -3 -10 -19 -15 -46 -15
l-40 0 0 50 c0 46 2 50 24 50 13 0 26 -7 30 -15 10 -27 26 -15 26 20 0 33 -12
46 -24 26 -3 -5 -17 -11 -31 -13 -24 -5 -25 -3 -25 38 l0 44 40 0 c22 0 40 -4
40 -10 0 -5 5 -10 10 -10 6 0 10 9 10 20 0 19 -7 20 -87 20 -75 -1 -85 -3 -70
-14z"/>
<path d="M14543 14636 c14 -11 17 -29 17 -106 0 -76 -3 -95 -17 -107 -16 -12
-7 -13 65 -11 74 3 86 6 103 27 25 31 24 57 -5 84 -20 19 -21 24 -10 35 21 19
18 69 -5 82 -11 5 -53 10 -93 10 -63 -1 -71 -2 -55 -14z m101 -2 c49 -19 37
-84 -14 -84 -29 0 -30 2 -30 45 0 46 8 53 44 39z m27 -123 c20 -16 22 -23 14
-47 -9 -24 -17 -30 -48 -32 l-37 -3 0 50 c0 47 2 51 24 51 13 0 34 -9 47 -19z"/>
<path d="M14794 14616 c-31 -31 -34 -40 -34 -91 0 -49 4 -60 29 -86 24 -23 38
-29 73 -29 72 1 108 43 108 130 0 44 -5 56 -29 81 -43 43 -101 41 -147 -5z
m121 -17 c19 -36 19 -119 0 -146 -24 -34 -54 -36 -86 -3 -24 23 -29 37 -29 75
0 25 7 59 15 75 24 47 76 47 100 -1z"/>
<path d="M15047 14630 c-84 -66 -44 -220 58 -220 47 0 79 19 100 60 29 56 11
145 -34 170 -33 17 -96 12 -124 -10z m120 -48 c16 -39 11 -107 -11 -137 -18
-24 -66 -22 -87 4 -42 51 -28 161 23 180 32 12 57 -4 75 -47z"/>
<path d="M15250 14640 c0 -5 5 -10 10 -10 6 0 10 -40 10 -100 0 -60 -4 -100
-10 -100 -5 0 -10 -4 -10 -10 0 -5 20 -10 45 -10 25 0 45 5 45 10 0 6 -7 10
-15 10 -19 0 -21 63 -1 79 16 13 21 8 56 -56 19 -35 29 -43 52 -43 30 0 38 14
13 24 -8 3 -31 30 -50 61 l-36 55 33 40 c18 22 39 40 46 40 6 0 12 5 12 10 0
6 -18 10 -40 10 -22 0 -40 -4 -40 -10 0 -5 5 -10 11 -10 10 0 -4 -22 -50 -80
l-21 -25 0 53 c0 40 4 52 15 52 8 0 15 5 15 10 0 6 -20 10 -45 10 -25 0 -45
-4 -45 -10z"/>
</g>
</svg>
