<?xml version="1.0" standalone="no"?>
<!DOCTYPE svg PUBLIC "-//W3C//DTD SVG 20010904//EN"
 "http://www.w3.org/TR/2001/REC-SVG-20010904/DTD/svg10.dtd">
<svg version="1.0" xmlns="http://www.w3.org/2000/svg"
 width="1587.000000pt" height="2245.000000pt" viewBox="0 0 1587.000000 2245.000000"
 preserveAspectRatio="xMidYMid meet">

<g transform="translate(0.000000,2245.000000) scale(0.100000,-0.100000)"
fill="#000000" stroke="none">
<path d="M8383 17742 l-123 -15 0 -32 c0 -32 1 -32 57 -39 112 -13 103 1 103
-153 l0 -135 -22 6 c-13 4 -57 9 -98 13 -270 21 -480 -190 -480 -482 1 -196
75 -340 210 -404 48 -22 67 -26 145 -25 96 2 153 17 216 59 l37 24 6 -34 c9
-47 35 -59 115 -52 91 8 121 20 121 51 0 23 -4 25 -52 28 l-53 3 -3 594 c-2
461 -5 597 -15 603 -14 9 -8 9 -164 -10z m-13 -454 l45 -23 3 -318 2 -318 -56
-26 c-67 -31 -165 -41 -219 -23 -56 19 -118 81 -151 153 -28 59 -29 69 -29
202 0 138 0 141 33 207 56 114 137 166 262 167 49 1 77 -5 110 -21z"/>
<path d="M1408 17703 l-138 -4 0 -39 0 -40 43 0 c23 0 52 -3 65 -6 l22 -6 0
-518 0 -517 -72 -9 c-73 -9 -73 -9 -76 -41 l-3 -33 251 0 251 0 -3 33 -3 32
-90 8 c-49 4 -96 9 -102 12 -10 3 -13 50 -13 190 0 102 1 185 3 186 1 0 67 4
147 8 113 6 158 13 202 30 80 31 146 79 190 137 54 70 73 132 73 234 -1 155
-51 250 -156 302 -101 49 -133 51 -591 41z m430 -88 c111 -33 163 -111 170
-251 8 -162 -39 -255 -151 -305 -41 -18 -75 -24 -159 -27 -60 -2 -119 -1 -133
2 l-25 6 0 289 c0 267 1 290 18 294 44 12 231 6 280 -8z"/>
<path d="M3447 17379 c-53 -13 -128 -52 -159 -86 -58 -61 -74 -153 -39 -229
27 -60 90 -107 251 -189 80 -40 155 -84 168 -98 13 -14 26 -43 29 -65 12 -87
-56 -150 -171 -159 -117 -10 -200 31 -225 110 -13 44 -17 47 -48 47 l-33 0 0
-86 0 -85 53 -24 c78 -36 210 -52 299 -37 172 30 258 115 258 256 0 109 -48
158 -253 259 -167 83 -206 114 -213 173 -11 88 61 149 176 149 94 0 139 -26
164 -93 16 -46 22 -52 47 -52 l29 0 0 83 c0 81 -1 84 -26 96 -79 36 -223 50
-307 30z"/>
<path d="M4267 17379 c-53 -13 -128 -52 -159 -86 -58 -61 -74 -153 -39 -229
27 -60 90 -107 251 -189 80 -40 155 -84 168 -98 13 -14 26 -43 29 -65 12 -87
-56 -150 -171 -159 -117 -10 -200 31 -225 110 -13 44 -17 47 -48 47 l-33 0 0
-86 0 -85 53 -24 c78 -36 210 -52 299 -37 172 30 258 115 258 256 0 109 -48
158 -253 259 -167 83 -206 114 -213 173 -11 88 61 149 176 149 94 0 139 -26
164 -93 16 -46 22 -52 47 -52 l29 0 0 83 c0 81 -1 84 -26 96 -79 36 -223 50
-307 30z"/>
<path d="M6450 17377 c-219 -63 -344 -273 -311 -522 25 -182 95 -292 224 -351
54 -24 74 -28 157 -28 129 0 193 25 276 108 69 70 108 142 129 241 19 90 19
148 -1 242 -41 201 -160 310 -348 319 -48 2 -99 -1 -126 -9z m191 -90 c85 -45
135 -151 146 -312 17 -260 -77 -425 -242 -425 -125 0 -214 95 -251 269 -45
212 17 423 141 477 51 22 155 18 206 -9z"/>
<path d="M2515 17364 c-79 -18 -159 -49 -176 -70 -9 -11 -9 -21 0 -43 l12 -28
62 26 c54 22 77 25 172 26 93 0 115 -3 143 -20 46 -27 71 -81 78 -168 l7 -74
-73 -7 c-284 -26 -450 -135 -450 -295 0 -102 73 -197 174 -226 101 -29 232 -5
309 56 39 31 39 31 51 -24 8 -35 46 -51 106 -42 82 11 110 24 110 50 0 21 -5
24 -47 27 l-48 3 0 305 c-1 339 -5 367 -61 429 -70 78 -220 108 -369 75z m293
-530 c1 -54 -1 -124 -5 -154 -8 -54 -9 -56 -63 -85 -46 -24 -67 -29 -125 -29
-79 0 -122 18 -159 67 -29 40 -30 150 -1 189 24 32 93 72 155 88 46 12 167 29
185 25 6 -1 11 -45 13 -101z"/>
<path d="M7290 17370 c-14 -5 -58 -18 -97 -30 -63 -18 -73 -24 -73 -43 0 -18
13 -29 55 -50 l55 -27 0 -324 c0 -354 3 -336 -58 -336 -54 0 -72 -11 -72 -41
l0 -29 250 0 250 0 0 29 c0 24 -5 29 -31 35 -17 3 -48 6 -69 6 -20 0 -58 3
-84 6 l-46 7 0 309 0 309 58 27 c47 22 71 27 142 27 47 0 98 -4 113 -9 l28 -8
-3 73 -3 74 -51 3 c-82 5 -213 -47 -274 -108 -20 -20 -20 -20 -20 35 0 43 -4
56 -19 65 -11 5 -21 10 -23 9 -2 0 -14 -4 -28 -9z"/>
<path d="M4730 17325 c0 -36 4 -38 65 -47 17 -3 40 -64 153 -406 l133 -403 61
3 61 3 88 330 c49 182 92 344 97 360 8 28 9 25 21 -35 9 -49 122 -456 177
-642 4 -15 17 -18 69 -18 63 0 64 0 74 33 5 17 58 196 116 397 59 201 108 366
109 368 2 1 23 6 47 10 42 7 44 9 47 45 l3 37 -155 0 -156 0 0 -34 c0 -37 12
-46 60 -46 16 0 31 -4 34 -8 7 -11 -152 -634 -165 -646 -6 -6 -9 -4 -9 5 0 8
-43 173 -95 367 -52 195 -95 355 -95 358 0 2 -29 4 -65 4 -36 0 -65 -3 -65 -6
0 -3 -36 -142 -79 -307 -43 -166 -85 -331 -93 -367 l-15 -65 -12 45 c-6 25
-50 171 -97 324 -91 297 -90 296 -32 296 46 0 58 10 58 46 l0 34 -170 0 -170
0 0 -35z"/>
<path d="M8962 16418 c4 -10 682 -14 3336 -16 l3332 -2 0 -784 0 -784 -2662
-6 c-1465 -4 -4744 -6 -7288 -4 l-4625 3 -3 783 c-1 510 -6 782 -12 782 -7 0
-10 -277 -10 -800 l0 -800 5970 0 5970 0 0 -270 0 -270 1345 0 1345 0 0 1090
0 1090 -3351 0 c-2676 0 -3350 -3 -3347 -12z m4337 -1764 c24 -5 31 -12 31
-30 0 -27 -15 -32 -24 -8 -10 25 -70 15 -74 -13 -3 -17 9 -29 52 -57 59 -38
76 -69 57 -105 -14 -25 -63 -39 -111 -31 -31 5 -35 9 -38 40 l-3 35 23 -28
c27 -33 73 -35 92 -4 12 20 -2 34 -74 80 -54 35 -52 94 5 117 26 11 27 11 64
4z m236 -9 c42 -20 60 -56 59 -116 -1 -58 -24 -96 -70 -115 -118 -49 -205 122
-107 212 21 20 36 26 76 33 5 0 24 -6 42 -14z m472 4 c15 -5 31 -16 35 -22 14
-22 8 -67 -12 -87 -20 -20 -20 -20 8 -65 15 -25 33 -45 39 -45 7 0 13 -4 13
-10 0 -5 -15 -10 -32 -10 -29 0 -36 6 -58 47 -33 64 -60 70 -60 14 0 -30 4
-41 15 -41 8 0 15 -4 15 -10 0 -5 -22 -10 -50 -10 -27 0 -50 5 -50 10 0 6 5
10 10 10 6 0 10 40 10 100 0 60 -4 100 -10 100 -25 0 -6 19 23 23 61 7 76 7
104 -4z m252 5 c26 -6 31 -11 31 -35 0 -34 -25 -40 -33 -9 -7 26 -56 27 -87 2
-33 -26 -38 -106 -11 -149 17 -27 27 -33 56 -33 24 0 39 6 47 20 18 28 30 25
26 -7 -3 -24 -9 -29 -46 -36 -119 -23 -194 110 -115 204 14 16 39 33 56 38 42
12 40 12 76 5z m437 -15 c19 -16 18 -78 -1 -85 -12 -5 -10 -10 10 -26 34 -27
33 -70 -1 -97 -22 -17 -41 -21 -100 -21 -43 0 -74 4 -74 10 0 6 7 10 15 10 12
0 15 18 15 100 0 82 -3 100 -15 100 -8 0 -15 4 -15 9 0 22 140 21 166 0z m219
6 c42 -20 60 -56 59 -116 -1 -58 -24 -96 -70 -115 -118 -49 -205 122 -107 212
21 20 36 26 76 33 5 0 24 -6 42 -14z m263 -11 c31 -21 45 -60 39 -117 -14
-155 -217 -146 -217 10 0 100 98 159 178 107z m-1480 2 c-14 -10 -18 -28 -18
-87 0 -92 16 -122 63 -117 43 4 57 35 57 126 0 57 -3 72 -15 72 -8 0 -15 5
-15 10 0 6 18 10 40 10 22 0 40 -4 40 -10 0 -5 -4 -10 -10 -10 -6 0 -10 -30
-10 -70 0 -39 -6 -86 -14 -104 -25 -59 -116 -70 -156 -18 -16 20 -20 40 -20
108 0 68 -3 84 -15 84 -8 0 -15 5 -15 10 0 6 24 10 53 10 45 -1 50 -2 35 -14z
m796 -3 c10 -24 -13 -43 -25 -20 -7 11 -22 17 -44 17 -34 0 -35 -1 -35 -40 0
-36 3 -40 25 -40 14 0 25 5 25 10 0 6 7 10 15 10 10 0 15 -11 15 -35 0 -24 -5
-35 -15 -35 -8 0 -15 5 -15 10 0 6 -11 10 -25 10 -23 0 -25 -4 -25 -45 l0 -45
40 0 c29 0 42 5 50 20 14 26 30 17 30 -16 0 -24 -1 -24 -95 -24 -57 0 -95 4
-95 10 0 6 7 10 15 10 12 0 15 18 15 100 0 82 -3 100 -15 100 -8 0 -15 5 -15
10 0 6 35 10 84 10 69 0 85 -3 90 -17z m846 7 c0 -5 -7 -10 -15 -10 -11 0 -15
-12 -15 -47 l1 -48 39 45 c27 30 36 47 27 52 -20 12 -1 19 44 15 34 -3 40 -5
24 -12 -11 -4 -35 -25 -53 -46 l-34 -38 32 -48 c18 -26 44 -58 59 -70 l26 -23
-37 0 c-34 0 -40 4 -59 43 -31 62 -39 69 -55 56 -19 -15 -18 -68 1 -75 31 -12
13 -24 -37 -24 -46 1 -51 2 -35 14 14 11 17 29 17 106 0 77 -3 95 -17 106 -16
12 -11 13 35 14 28 0 52 -4 52 -10z"/>
<path d="M13446 14615 c-34 -35 -32 -137 3 -169 27 -25 72 -17 89 14 18 35 10
124 -13 150 -22 24 -58 26 -79 5z"/>
<path d="M13940 14579 c0 -51 0 -51 27 -44 31 8 43 21 43 51 0 26 -18 44 -47
44 -21 0 -23 -4 -23 -51z"/>
<path d="M14600 14590 c0 -41 1 -41 33 -38 29 3 32 6 32 38 0 32 -3 35 -32 38
-32 3 -33 3 -33 -38z"/>
<path d="M14600 14475 c0 -42 2 -45 28 -45 32 0 46 9 55 33 12 32 -10 57 -48
57 -35 0 -35 0 -35 -45z"/>
<path d="M14826 14615 c-34 -35 -32 -137 3 -169 27 -25 72 -17 89 14 18 35 10
124 -13 150 -22 24 -58 26 -79 5z"/>
<path d="M15066 14608 c-20 -29 -21 -110 -1 -148 12 -23 22 -30 45 -30 40 0
62 36 62 100 0 64 -22 100 -62 100 -19 0 -34 -8 -44 -22z"/>
<path d="M13241 16053 c0 -21 4 -59 8 -85 4 -27 6 -48 4 -48 -2 0 -32 23 -66
50 -34 28 -64 50 -68 50 -9 0 -43 -39 -38 -44 2 -2 39 -22 81 -44 l77 -41 -72
-36 c-91 -47 -91 -47 -69 -75 l19 -23 70 55 70 56 -8 -46 c-4 -26 -8 -66 -8
-89 -1 -41 0 -43 29 -43 28 0 30 2 29 38 0 20 -4 61 -8 89 -7 47 -6 51 8 40 9
-7 40 -33 69 -57 l53 -43 22 21 c26 26 24 29 -72 78 l-74 37 82 38 c44 21 81
42 81 47 0 5 -9 17 -20 27 -19 17 -21 16 -75 -25 -31 -24 -58 -47 -61 -51 -14
-23 -21 -5 -13 34 4 23 8 61 9 85 0 40 -1 42 -30 42 -28 0 -30 -2 -29 -37z"/>
<path d="M10556 16015 c-32 -33 -13 -75 35 -75 34 0 51 21 47 57 -2 23 -8 29
-34 31 -19 2 -38 -3 -48 -13z"/>
<path d="M12105 16023 c-58 -7 -75 -13 -75 -28 0 -8 14 -17 35 -21 l35 -6 0
-268 0 -268 -30 -7 c-16 -4 -30 -13 -30 -21 0 -11 20 -14 95 -14 75 0 95 3 95
14 0 8 -13 17 -30 21 -29 6 -30 8 -30 69 0 56 3 65 29 90 16 16 34 25 39 22 6
-3 37 -44 70 -90 l60 -84 -29 -6 c-17 -3 -29 -12 -29 -21 0 -12 17 -15 95 -15
77 0 95 3 95 15 0 8 -13 18 -29 22 -22 6 -51 36 -111 117 l-82 108 68 69 c52
52 75 69 96 69 21 0 28 5 28 20 0 19 -7 20 -91 20 -81 0 -90 -2 -87 -17 2 -11
14 -19 32 -21 28 -4 27 -5 -60 -93 l-89 -89 -5 207 c-5 226 -2 214 -65 206z"/>
<path d="M4118 16003 c-89 -3 -98 -5 -98 -23 0 -16 7 -20 35 -20 l35 0 0 -265
c0 -255 -1 -265 -19 -265 -30 0 -51 -11 -51 -26 0 -11 23 -14 103 -16 173 -4
218 1 274 28 81 39 119 120 94 197 -14 41 -72 97 -101 97 -28 0 -25 13 9 33
62 36 78 152 29 205 -46 49 -119 62 -310 55z m220 -57 c75 -39 66 -169 -13
-202 -19 -8 -64 -14 -100 -14 l-65 0 0 114 c0 100 2 115 18 120 29 8 131 -3
160 -18z m-18 -265 c66 -13 100 -55 100 -125 0 -64 -23 -99 -77 -117 -37 -12
-156 -15 -173 -4 -6 4 -10 62 -10 131 l0 124 58 0 c31 -1 77 -5 102 -9z"/>
<path d="M6007 16003 c-105 -3 -118 -6 -115 -21 2 -11 14 -18 36 -20 l32 -3 0
-265 c0 -254 -1 -264 -19 -264 -30 0 -51 -11 -51 -27 0 -12 26 -14 173 -11
154 3 176 5 213 25 59 31 103 79 133 143 23 48 26 67 25 155 -1 110 -13 150
-64 208 -60 68 -140 86 -363 80z m226 -56 c45 -19 104 -88 118 -139 7 -24 12
-78 12 -120 0 -100 -36 -177 -101 -223 -41 -28 -50 -30 -135 -30 l-92 0 -3
263 -2 262 85 0 c49 0 99 -6 118 -13z"/>
<path d="M7462 15983 c2 -12 14 -19 36 -21 l32 -3 0 -265 c0 -254 -1 -264 -19
-264 -30 0 -51 -11 -51 -26 0 -11 26 -14 131 -14 119 0 130 2 127 18 -2 13
-15 18 -61 20 l-57 3 0 124 0 125 89 0 90 0 3 -27 c2 -20 9 -29 26 -31 21 -3
22 -1 22 77 0 73 -2 81 -19 81 -12 0 -23 -11 -30 -30 l-10 -30 -85 0 -86 0 0
120 0 121 118 -3 117 -3 10 -32 c6 -22 15 -33 27 -33 15 0 18 9 18 55 l0 55
-216 0 c-200 0 -215 -1 -212 -17z"/>
<path d="M9340 15981 c0 -15 8 -21 33 -23 l32 -3 0 -259 0 -260 -32 -8 c-19
-5 -33 -15 -33 -23 0 -12 19 -15 101 -15 90 0 100 2 97 18 -2 10 -14 18 -31
20 l-27 3 0 115 0 114 155 0 155 0 0 -115 c0 -107 -1 -115 -19 -115 -30 0 -51
-11 -51 -26 0 -11 22 -14 105 -14 83 0 105 3 105 14 0 15 -21 26 -51 26 -18 0
-19 10 -19 265 l0 265 30 0 c23 0 30 4 30 20 0 19 -7 20 -101 20 -90 0 -100
-2 -97 -17 2 -12 14 -19 36 -21 l32 -3 0 -125 0 -124 -155 0 -155 0 0 125 0
125 30 0 c23 0 30 4 30 20 0 19 -7 20 -100 20 -92 0 -100 -2 -100 -19z"/>
<path d="M10918 15990 c-77 -23 -114 -79 -106 -161 4 -42 12 -57 44 -90 38
-39 38 -41 19 -55 -74 -54 -95 -89 -95 -161 0 -39 5 -50 38 -83 44 -45 104
-64 177 -58 99 9 162 59 173 140 8 64 -13 94 -112 162 -19 13 -18 15 18 46 48
43 66 79 66 134 0 98 -109 160 -222 126z m133 -59 c51 -52 35 -155 -31 -194
-26 -16 -28 -15 -79 19 -84 57 -100 128 -39 179 44 37 109 35 149 -4z m-24
-307 c67 -42 89 -82 73 -130 -15 -46 -61 -74 -120 -74 -62 0 -104 28 -125 83
-22 57 -9 103 41 147 39 34 36 35 131 -26z"/>
<path d="M11260 15981 c0 -15 8 -21 33 -23 l32 -3 0 -250 c-1 -137 -4 -272 -9
-298 -9 -57 -51 -110 -102 -129 -37 -13 -43 -25 -19 -35 45 -16 158 65 187
135 7 17 13 131 16 305 l4 277 29 0 c22 0 29 5 29 20 0 19 -7 20 -100 20 -92
0 -100 -2 -100 -19z"/>
<path d="M9092 15955 c-84 -40 -153 -105 -196 -186 -42 -76 -49 -191 -15 -268
66 -154 262 -160 343 -11 32 60 36 147 7 200 -39 74 -125 101 -201 62 -38 -19
-49 -49 -15 -44 69 12 95 13 114 3 34 -19 54 -70 55 -137 0 -104 -57 -164
-142 -151 -96 16 -142 176 -90 314 28 76 121 170 201 203 37 15 54 27 50 36
-8 22 -33 17 -111 -21z"/>
<path d="M3342 15870 c-18 -10 -55 -27 -82 -39 -63 -27 -70 -57 -11 -47 22 3
46 9 55 12 14 5 16 -14 16 -180 l0 -186 -32 0 c-48 0 -78 -10 -78 -26 0 -11
28 -14 145 -14 116 0 145 3 145 14 0 13 -41 26 -86 26 l-24 0 0 224 c0 124 -3
227 -7 229 -5 3 -23 -3 -41 -13z"/>
<path d="M4692 15872 c-59 -21 -103 -57 -95 -78 4 -11 14 -9 47 10 112 65 206
29 206 -79 0 -71 -61 -154 -181 -247 -44 -34 -78 -66 -76 -72 2 -7 64 -11 182
-11 l179 0 12 50 c17 64 1 79 -36 35 -24 -30 -29 -31 -133 -38 -59 -4 -107 -5
-107 -2 0 3 13 13 29 23 90 53 180 164 201 248 10 41 9 53 -8 92 -34 76 -122
104 -220 69z"/>
<path d="M5545 15876 c-50 -16 -85 -37 -85 -53 0 -22 17 -23 56 -2 47 24 124
22 154 -6 28 -25 35 -76 16 -112 -13 -27 -84 -71 -138 -87 -10 -3 -18 -15 -18
-26 0 -20 4 -21 53 -15 88 10 147 -34 147 -113 0 -88 -94 -162 -206 -162 -37
0 -44 -3 -44 -20 0 -17 7 -20 53 -20 167 0 294 119 266 250 -9 40 -47 77 -87
86 -55 12 -57 14 -25 34 48 29 83 87 83 137 0 96 -105 147 -225 109z"/>
<path d="M6725 15833 c-14 -32 -68 -135 -120 -229 -52 -94 -95 -181 -95 -193
0 -20 4 -21 135 -21 l135 0 0 -76 0 -75 33 3 32 3 3 73 3 72 39 0 c38 0 40 2
40 30 0 28 -2 30 -40 30 l-39 0 -3 98 c-3 91 -4 97 -23 94 -44 -7 -45 -8 -45
-105 l0 -94 -102 -6 c-57 -3 -104 -5 -104 -4 -1 1 54 97 121 212 121 207 123
210 103 228 -32 27 -45 21 -73 -40z"/>
<path d="M7987 15848 c-17 -96 -28 -231 -19 -240 5 -5 19 -5 36 2 72 27 164 1
190 -55 54 -114 -38 -245 -185 -262 -32 -4 -49 -10 -49 -20 0 -40 127 -21 207
32 76 50 107 101 111 184 3 56 0 71 -20 100 -38 55 -81 73 -165 68 -83 -5 -79
-11 -62 94 l12 69 97 0 c93 0 98 1 104 23 3 12 6 25 6 30 0 4 -58 7 -129 7
l-129 0 -5 -32z"/>
<path d="M10036 15834 c-3 -26 -6 -55 -6 -65 0 -33 29 -21 50 21 l20 40 125 0
124 0 -61 -147 c-33 -82 -83 -197 -110 -258 -27 -60 -52 -115 -54 -121 -6 -13
53 -40 64 -30 12 13 221 590 216 598 -3 5 -85 8 -183 8 l-178 0 -7 -46z"/>
<path d="M11655 15858 c-21 -13 -53 -43 -70 -66 -27 -40 -30 -51 -30 -122 0
-64 4 -84 21 -106 36 -49 70 -68 121 -68 52 0 117 28 110 47 -4 12 -14 12 -78
1 -108 -19 -159 178 -69 268 59 59 165 25 191 -61 6 -21 10 -78 8 -127 -3 -77
-9 -99 -37 -156 -37 -75 -129 -168 -187 -189 -22 -8 -35 -19 -35 -31 0 -15 5
-17 28 -12 51 12 124 58 178 112 152 152 177 400 49 498 -52 40 -142 45 -200
12z"/>
<path d="M12671 15858 c-48 -24 -95 -82 -112 -138 -18 -59 -7 -177 20 -233 63
-130 245 -144 330 -26 40 54 54 106 53 195 -1 108 -38 180 -109 210 -49 21
-131 18 -182 -8z m158 -44 c43 -36 65 -115 59 -213 -7 -125 -48 -181 -132
-181 -46 0 -90 38 -113 98 -24 63 -24 203 0 249 40 76 126 98 186 47z"/>
<path d="M8523 15840 c-90 -21 -137 -82 -130 -168 3 -40 10 -59 30 -80 l26
-27 -19 -30 c-23 -35 -26 -97 -5 -115 13 -10 11 -16 -10 -44 -34 -45 -41 -86
-20 -125 24 -47 73 -65 175 -65 72 -1 92 3 130 24 57 32 83 79 77 138 -8 78
-53 102 -190 102 -100 0 -117 9 -117 60 l0 39 64 -6 c54 -5 72 -2 110 16 66
33 89 75 84 157 l-4 64 38 0 c34 0 38 3 38 25 0 33 -16 38 -70 26 -33 -7 -58
-6 -99 5 -60 15 -62 15 -108 4z m114 -65 c34 -39 33 -136 -2 -170 -27 -28 -76
-33 -120 -13 -73 33 -74 178 -1 209 37 16 99 3 123 -26z m30 -390 c34 -8 53
-33 53 -71 0 -43 -26 -69 -81 -84 -96 -26 -189 20 -189 92 0 63 17 74 111 70
46 -1 94 -5 106 -7z"/>
<path d="M3670 15824 c-60 -16 -83 -33 -72 -51 6 -9 21 -8 64 4 104 29 168 -2
168 -81 l0 -43 -59 -7 c-85 -10 -161 -51 -185 -100 -17 -36 -18 -43 -5 -79 28
-81 123 -110 212 -64 43 22 47 23 47 6 0 -22 32 -33 76 -24 40 7 47 35 9 35
l-25 0 0 169 c0 166 -1 170 -25 199 -15 18 -41 34 -69 41 -56 14 -68 13 -136
-5z m160 -288 c0 -84 -7 -95 -69 -103 -62 -9 -90 3 -107 44 -25 59 -1 95 86
126 8 3 32 6 53 6 l37 1 0 -74z"/>
<path d="M5205 15829 c-87 -25 -145 -115 -145 -225 0 -163 99 -246 252 -215
63 13 91 30 80 48 -6 9 -23 9 -73 1 -60 -10 -70 -10 -105 9 -112 58 -118 286
-8 338 59 28 117 15 134 -31 5 -13 16 -24 25 -24 11 0 15 12 15 49 0 42 -3 49
-22 55 -32 8 -117 6 -153 -5z"/>
<path d="M7150 15829 c-112 -47 -165 -178 -126 -311 18 -63 61 -108 122 -128
71 -24 231 9 218 45 -5 11 -13 15 -28 10 -11 -3 -46 -9 -77 -12 -97 -10 -159
38 -175 135 l-7 42 152 0 151 0 0 48 c0 68 -16 114 -50 147 -26 25 -40 30 -93
32 -34 2 -73 -2 -87 -8z m119 -46 c12 -10 26 -36 31 -58 18 -79 23 -75 -105
-75 -63 0 -115 3 -115 8 0 31 27 91 52 114 36 34 102 39 137 11z"/>
<path d="M10563 15822 c-29 -8 -53 -19 -53 -24 0 -5 13 -17 30 -26 l30 -17 0
-161 0 -162 -35 -6 c-21 -4 -35 -13 -35 -21 0 -12 19 -15 100 -15 80 0 100 3
100 14 0 8 -13 17 -30 21 l-30 7 0 198 c0 149 -3 199 -12 202 -7 2 -37 -2 -65
-10z"/>
</g>
</svg>
