<?xml version="1.0" encoding="utf-8" ?>
<svg baseProfile="tiny" height="600px" version="1.2" width="800px" xmlns="http://www.w3.org/2000/svg" xmlns:ev="http://www.w3.org/2001/xml-events" xmlns:xlink="http://www.w3.org/1999/xlink"><defs /><image height="50" width="50" x="400" xlink:href="characters/ciarka.svg" y="100" /><text fill="white" font-size="20" x="460" y="125.0">0000</text><image height="50" width="50" x="400" xlink:href="characters/dve_vlnky.svg" y="170" /><text fill="white" font-size="20" x="460" y="195.0">0001</text><image height="50" width="50" x="400" xlink:href="characters/dvoj_trojuholnik.svg" y="240" /><text fill="white" font-size="20" x="460" y="265.0">0010</text><image height="50" width="50" x="400" xlink:href="characters/dvojita_sipka.svg" y="310" /><text fill="white" font-size="20" x="460" y="335.0">0011</text><image height="50" width="50" x="400" xlink:href="characters/hebresky_znak.svg" y="380" /><text fill="white" font-size="20" x="460" y="405.0">0100</text><image height="50" width="50" x="400" xlink:href="characters/kruh_v_kruhu.svg" y="450" /><text fill="white" font-size="20" x="460" y="475.0">0101</text><image height="50" width="50" x="400" xlink:href="characters/list.svg" y="520" /><text fill="white" font-size="20" x="460" y="545.0">0110</text><image height="50" width="50" x="400" xlink:href="characters/lopta.svg" y="590" /><text fill="white" font-size="20" x="460" y="615.0">0111</text><image height="50" width="50" x="400" xlink:href="characters/naopak_trojuholnicek.svg" y="660" /><text fill="white" font-size="20" x="460" y="685.0">1000</text><image height="50" width="50" x="400" xlink:href="characters/oko_2.svg" y="730" /><text fill="white" font-size="20" x="460" y="755.0">1001</text><image height="50" width="50" x="400" xlink:href="characters/plus_kruh.svg" y="800" /><text fill="white" font-size="20" x="460" y="825.0">1010</text><image height="50" width="50" x="400" xlink:href="characters/polkruh.svg" y="870" /><text fill="white" font-size="20" x="460" y="895.0">1011</text></svg>